<?xml version="1.0" encoding="UTF-8"?><svg id="b" xmlns="http://www.w3.org/2000/svg" viewBox="0 0 476.33 131.02"><g id="c"><g><path d="m146.03,67.68l3.22-12.37h4.16l-3.19,12.26c-.1.38-.18.76-.24,1.15-.06.39-.11.83-.14,1.33-.03.5.06.96.28,1.36.22.41.59.72,1.12.94.53.22,1.24.33,2.12.33,1.17,0,2.13-.19,2.86-.57.73-.38,1.31-.92,1.75-1.63.43-.71.81-1.68,1.13-2.91l3.19-12.26h4.13l-3.22,12.37c-.14.53-.29,1.06-.47,1.59-.17.53-.36,1.05-.54,1.56-.37.85-1.17,1.92-2.42,3.19-1.24,1.28-3.67,1.91-7.28,1.91s-5.77-.59-6.32-1.77c-.55-1.18-.83-2-.83-2.44,0-.44,0-.8.01-1.06.01-.26.07-.57.16-.91.07-.26.13-.52.19-.75.06-.24.12-.47.18-.7l.16-.62Z" style="fill:#ecad3e;"/><path d="m167.76,75.71h-3.8l3.89-14.95h7.19c1.34,0,2.41.16,3.21.48.8.32,1.33.88,1.6,1.69.27.8.22,1.91-.14,3.3l-2.46,9.48h-3.88l2.33-8.96c.08-.3.14-.59.18-.87.04-.27.06-.57.05-.88-.01-.31-.17-.54-.48-.69-.31-.15-.83-.23-1.57-.23h-3.08l-3.03,11.63Z" style="fill:#ecad3e;"/><path d="m184.96,55.31h3.96l-.97,3.72h-3.97l.97-3.72Zm-1.42,5.45h3.96l-3.89,14.95h-3.97l3.89-14.95Z" style="fill:#ecad3e;"/><path d="m194.74,75.71h-4.08l-2.25-14.95h4.24l1.28,10.64,7.01-10.64h4.13l-10.33,14.95Z" style="fill:#ecad3e;"/><path d="m214.93,72.62l-.8,3.09h-5.59c-2.48,0-4.14-.68-4.99-2.04-.85-1.36-.98-3.18-.39-5.45.59-2.27,1.49-3.94,2.71-5.01,1.21-1.07,2.33-1.74,3.35-2.03,1.02-.28,2.09-.43,3.21-.43h5.59l-.8,3.09h-5.07c-.83,0-1.5.07-2.01.2-.51.13-.96.41-1.34.82-.44.44-.76,1.04-.97,1.82h8.64l-.82,3.15h-8.65c-.2.78-.22,1.37-.06,1.77.16.41.47.69.92.84.45.11,1.1.17,1.97.17h5.09Z" style="fill:#ecad3e;"/><path d="m219.58,75.71h-3.8l3.89-14.95h6.44c1.17,0,2.01.17,2.51.51.5.34.75.8.77,1.39.01.59-.12,1.4-.39,2.44l-.26.99-.24.91h-3.63l.31-1.19c.2-.78.29-1.29.26-1.55-.02-.25-.15-.43-.39-.52-.23-.04-.43-.07-.61-.09-.18-.02-.48-.03-.9-.03h-.83l-3.14,12.09Z" style="fill:#ecad3e;"/><path d="m237.53,75.71h-9.83l.8-3.09h8.07c1.36,0,2.17-.5,2.43-1.5.25-.96-.3-1.45-1.66-1.45h-3.33c-.48,0-.85,0-1.12-.03-.27-.02-.65-.07-1.14-.16-.49-.09-.91-.27-1.26-.57-.35-.29-.55-.73-.62-1.3-.07-.58,0-1.27.21-2.09.83-3.18,2.95-4.77,6.36-4.77h8.21l-.8,3.09h-7.45c-1.16,0-1.9.33-2.2,1l-.12.48c-.22.83.28,1.25,1.49,1.25h3.5c.7,0,1.31.08,1.85.24.54.16.98.42,1.33.77.35.35.58.79.69,1.33.11.54.07,1.16-.11,1.86-.22.85-.53,1.57-.92,2.15-.39.59-.74,1.03-1.03,1.32-.3.29-.72.61-1.27.95-.55.34-1.23.51-2.06.51Z" style="fill:#ecad3e;"/><path d="m248.75,55.31h3.96l-.97,3.72h-3.96l.97-3.72Zm-1.42,5.45h3.97l-3.89,14.95h-3.96l3.89-14.95Z" style="fill:#ecad3e;"/><path d="m264.81,55.31h3.88l-5.3,20.4h-7.38c-1.4,0-2.38-.18-2.96-.54-.58-.36-.94-.61-1.1-.75-.16-.14-.36-.38-.6-.71-.25-.33-.45-.77-.61-1.32-.16-.55-.24-1.14-.25-1.79,0-.64.08-1.31.25-1.99l.08-.31c.55-2.12,1.41-3.74,2.58-4.88,1.17-1.13,2.25-1.86,3.27-2.18,1.01-.32,2.16-.48,3.44-.48h3.28l1.41-5.45Zm-5.69,17.22h1.21l2.21-8.51-.87-.03h-1.07l-1.92.08c-.44,0-1.03.25-1.77.77-.58.47-1.03,1.03-1.34,1.66-.31.63-.57,1.36-.79,2.17-.21.79-.28,1.45-.22,1.97.06.52.32.96.78,1.33.46.37,1.39.55,2.79.55h.99Z" style="fill:#ecad3e;"/><path d="m275.64,63.85h-6.42l.8-3.09h7.85c.94,0,1.77.09,2.5.28.73.19,1.36.69,1.9,1.49.54.8.58,2.08.12,3.82l-2.44,9.36h-10.27c-1.43,0-2.43-.4-2.99-1.19-.61-.76-.73-1.84-.37-3.24l.1-.4c.31-.85.69-1.55,1.13-2.11.44-.56.97-.99,1.58-1.3.61-.31,1.24-.53,1.89-.65.65-.12,1.42-.18,2.32-.18h5.07c.21-.8.22-1.4.04-1.8-.18-.41-.5-.67-.95-.79-.46-.12-1.08-.19-1.87-.19Zm-3.6,8.88h4.79l.81-3.12h-4.51c-.64,0-1.22.1-1.72.3-.5.2-.83.62-1,1.26-.11.44-.1.77.03,1.01.13.24.32.39.57.45.25.07.59.1,1.04.1Z" style="fill:#ecad3e;"/><path d="m297.41,55.31h3.88l-5.3,20.4h-7.38c-1.4,0-2.38-.18-2.96-.54-.58-.36-.94-.61-1.1-.75-.15-.14-.35-.38-.6-.71-.25-.33-.45-.77-.61-1.32-.16-.55-.24-1.14-.25-1.79,0-.64.08-1.31.25-1.99l.08-.31c.55-2.12,1.41-3.74,2.58-4.88,1.17-1.13,2.26-1.86,3.27-2.18,1.01-.32,2.16-.48,3.44-.48h3.28l1.42-5.45Zm-5.69,17.22h1.21l2.21-8.51-.87-.03h-1.07l-1.92.08c-.44,0-1.03.25-1.77.77-.58.47-1.03,1.03-1.34,1.66-.31.63-.57,1.36-.78,2.17-.21.79-.28,1.45-.22,1.97.06.52.32.96.78,1.33.46.37,1.39.55,2.79.55h.99Z" style="fill:#ecad3e;"/><path d="m320.67,55.31h3.88l-5.3,20.4h-7.38c-1.4,0-2.38-.18-2.96-.54-.58-.36-.94-.61-1.1-.75-.16-.14-.36-.38-.6-.71-.25-.33-.45-.77-.61-1.32-.16-.55-.25-1.14-.25-1.79,0-.64.08-1.31.25-1.99l.08-.31c.55-2.12,1.41-3.74,2.58-4.88,1.17-1.13,2.26-1.86,3.27-2.18,1.01-.32,2.16-.48,3.44-.48h3.28l1.42-5.45Zm-5.69,17.22h1.21l2.21-8.51-.87-.03h-1.07l-1.92.08c-.44,0-1.03.25-1.77.77-.58.47-1.03,1.03-1.34,1.66-.31.63-.57,1.36-.78,2.17-.21.79-.28,1.45-.22,1.97.06.52.32.96.78,1.33.46.37,1.39.55,2.79.55h.99Z" style="fill:#ecad3e;"/><path d="m334.59,72.62l-.8,3.09h-5.59c-2.48,0-4.14-.68-4.99-2.04-.85-1.36-.98-3.18-.39-5.45.59-2.27,1.49-3.94,2.71-5.01,1.21-1.07,2.33-1.74,3.35-2.03,1.02-.28,2.09-.43,3.21-.43h5.59l-.8,3.09h-5.07c-.83,0-1.49.07-2.01.2-.51.13-.96.41-1.34.82-.44.44-.77,1.04-.97,1.82h8.65l-.82,3.15h-8.65c-.2.78-.22,1.37-.06,1.77.16.41.47.69.92.84.45.11,1.1.17,1.97.17h5.09Z" style="fill:#ecad3e;"/><path d="m340.69,55.31h3.96l-5.3,20.4h-3.97l5.31-20.4Z" style="fill:#ecad3e;"/><path d="m369.77,55.31l-.92,3.55h-6.83c-1.49,0-2.74.4-3.77,1.2-1.03.8-1.74,1.99-2.15,3.56h11.51l-.92,3.55h-11.51c-.44,1.7-.45,2.9-.02,3.59.43.69.89,1.1,1.38,1.22.49.12,1.17.18,2.03.18h6.83l-.92,3.55h-6.99c-1.32,0-2.42-.12-3.28-.36-.87-.23-1.67-.71-2.42-1.43-.86-.98-1.35-2.17-1.46-3.55-.11-1.38.05-2.88.46-4.48l.37-1.22c.19-.74.45-1.46.78-2.16.33-.7.68-1.36,1.07-1.99.38-.62.78-1.17,1.2-1.65.42-.47.99-1,1.71-1.59.72-.59,1.52-1.02,2.4-1.29.88-.28,1.68-.46,2.41-.55.73-.09,1.46-.14,2.17-.14h6.88Z" style="fill:#ecad3e;"/><path d="m376.55,75.71h-9.83l.8-3.09h8.07c1.36,0,2.17-.5,2.43-1.5.25-.96-.3-1.45-1.66-1.45h-3.33c-.48,0-.85,0-1.12-.03-.27-.02-.65-.07-1.14-.16-.49-.09-.91-.27-1.26-.57-.35-.29-.55-.73-.62-1.3-.07-.58,0-1.27.21-2.09.83-3.18,2.95-4.77,6.36-4.77h8.21l-.81,3.09h-7.45c-1.16,0-1.9.33-2.2,1l-.13.48c-.22.83.28,1.25,1.49,1.25h3.5c.7,0,1.31.08,1.85.24.54.16.98.42,1.33.77.35.35.58.79.69,1.33.11.54.07,1.16-.11,1.86-.22.85-.53,1.57-.92,2.15-.39.59-.73,1.03-1.03,1.32-.3.29-.72.61-1.27.95-.55.34-1.23.51-2.06.51Z" style="fill:#ecad3e;"/><path d="m386.79,63.74h-2.67l.78-2.98h2.67l1.42-5.45h3.83l-1.42,5.45h4.1l-.77,2.98h-4.1l-1.57,6.04c-.23.89-.26,1.55-.09,1.99.17.43.49.71.96.82.56.09,1.26.14,2.08.14h.38l-.77,2.98h-3.5c-1.45,0-2.44-.42-2.98-1.25-.54-.83-.62-1.97-.24-3.41l1.9-7.32Z" style="fill:#ecad3e;"/><path d="m402.79,63.85h-6.41l.8-3.09h7.85c.94,0,1.77.09,2.5.28.73.19,1.36.69,1.9,1.49.54.8.58,2.08.12,3.82l-2.44,9.36h-10.27c-1.43,0-2.43-.4-2.99-1.19-.61-.76-.74-1.84-.37-3.24l.1-.4c.31-.85.69-1.55,1.13-2.11.44-.56.97-.99,1.58-1.3.61-.31,1.24-.53,1.89-.65.65-.12,1.42-.18,2.32-.18h5.07c.21-.8.22-1.4.04-1.8-.18-.41-.5-.67-.95-.79-.45-.12-1.08-.19-1.87-.19Zm-3.6,8.88h4.79l.81-3.12h-4.51c-.64,0-1.21.1-1.72.3-.5.2-.84.62-1,1.26-.11.44-.1.77.03,1.01.13.24.32.39.57.45.25.07.59.1,1.03.1Z" style="fill:#ecad3e;"/><path d="m424.56,55.31h3.88l-5.3,20.4h-7.38c-1.4,0-2.38-.18-2.96-.54-.58-.36-.94-.61-1.1-.75-.16-.14-.36-.38-.6-.71-.25-.33-.45-.77-.61-1.32-.16-.55-.24-1.14-.25-1.79,0-.64.08-1.31.25-1.99l.08-.31c.55-2.12,1.41-3.74,2.58-4.88,1.17-1.13,2.26-1.86,3.27-2.18,1.01-.32,2.16-.48,3.44-.48h3.28l1.42-5.45Zm-5.69,17.22h1.21l2.21-8.51-.88-.03h-1.07l-1.92.08c-.44,0-1.03.25-1.77.77-.58.47-1.03,1.03-1.34,1.66-.31.63-.57,1.36-.78,2.17-.21.79-.28,1.45-.22,1.97.06.52.32.96.78,1.33.46.37,1.39.55,2.79.55h.99Z" style="fill:#ecad3e;"/><path d="m438.36,73.92c-.87.66-1.71,1.13-2.51,1.4-.81.27-1.47.46-1.99.55-.52.09-1.05.14-1.58.14-1.01,0-1.97-.19-2.88-.55-.92-.37-1.62-.88-2.12-1.54-.5-.66-.79-1.39-.88-2.17-.09-.79-.12-1.43-.08-1.93.04-.5.13-1.04.28-1.6.28-1.08.66-1.99,1.14-2.74.48-.75.89-1.32,1.24-1.72.35-.4.86-.87,1.52-1.4.66-.54,1.53-.99,2.58-1.36,1.06-.37,2.14-.55,3.24-.55,1.05,0,2,.17,2.88.52.87.35,1.51.8,1.91,1.33.4.54.68,1.01.83,1.42.15.41.27.97.36,1.7.09.73-.02,1.66-.31,2.79-.28,1.08-.73,2.11-1.35,3.11-.62.99-1.38,1.86-2.29,2.6Zm-6.47-1.36c.13.08.3.13.52.17.22.04.44.06.66.06.79,0,1.57-.24,2.33-.71.76-.47,1.34-1.05,1.73-1.73.39-.68.67-1.37.86-2.07.26-1,.31-1.88.15-2.62-.16-.75-.6-1.29-1.3-1.63-.46-.19-.91-.28-1.33-.28-.48,0-1,.1-1.57.31-.56.25-1.05.56-1.48.94-.43.38-.8.84-1.12,1.39-.32.55-.57,1.18-.76,1.9-.25.96-.28,1.83-.09,2.61.19.78.66,1.33,1.4,1.67Z" style="fill:#ecad3e;"/></g><g><path d="m110.59,27.8h3.87v13.09c0,1.13.1,1.92.3,2.39.2.47.52.84.98,1.12.45.28,1,.42,1.64.42.68,0,1.26-.16,1.75-.47.49-.31.83-.71,1.02-1.19.19-.48.28-1.4.28-2.76v-12.61h3.87v12.06c0,2.04-.11,3.45-.34,4.24-.23.79-.67,1.55-1.31,2.28-.65.73-1.39,1.28-2.24,1.63-.84.35-1.83.53-2.95.53-1.47,0-2.74-.34-3.83-1.01-1.09-.67-1.86-1.52-2.33-2.53-.47-1.01-.7-2.73-.7-5.14v-12.06Z" style="fill:#000100;"/><path d="m128.27,27.8h3.7l8.66,13.32v-13.32h3.85v20.24h-3.71l-8.65-13.28v13.28h-3.85v-20.24Z" style="fill:#000100;"/><path d="m148.31,27.8h3.82v20.24h-3.82v-20.24Z" style="fill:#000100;"/><path d="m154.43,27.8h3.96l5.09,14.38,5.17-14.38h3.96l-7.29,20.24h-3.72l-7.17-20.24Z" style="fill:#000100;"/><path d="m175.2,27.8h11.05v3.77h-7.22v3.66h7.22v3.7h-7.22v5.32h7.22v3.78h-11.05v-20.24Z" style="fill:#000100;"/><path d="m189.59,27.8h4.08c2.24,0,3.83.2,4.78.6.95.4,1.71,1.06,2.29,1.99.58.93.87,2.02.87,3.29,0,1.33-.32,2.44-.96,3.34-.64.9-1.6,1.57-2.88,2.03l4.79,9h-4.21l-4.55-8.57h-.35v8.57h-3.85v-20.24Zm3.85,7.91h1.21c1.23,0,2.07-.16,2.53-.48.46-.32.69-.86.69-1.6,0-.44-.11-.83-.34-1.15-.23-.33-.54-.56-.92-.7-.38-.14-1.09-.21-2.11-.21h-1.06v4.16Z" style="fill:#000100;"/><path d="m215.78,30.55l-2.85,2.52c-1-1.39-2.02-2.09-3.06-2.09-.51,0-.92.14-1.24.41-.32.27-.48.58-.48.92s.12.66.35.96c.31.4,1.25,1.27,2.82,2.6,1.47,1.23,2.36,2,2.67,2.32.78.79,1.33,1.54,1.66,2.26.33.72.49,1.5.49,2.36,0,1.66-.58,3.03-1.72,4.11-1.15,1.08-2.64,1.62-4.49,1.62-1.44,0-2.7-.35-3.77-1.06-1.07-.71-1.99-1.82-2.75-3.33l3.24-1.95c.97,1.79,2.09,2.68,3.36,2.68.66,0,1.22-.19,1.67-.58.45-.39.67-.83.67-1.33,0-.46-.17-.92-.51-1.38-.34-.46-1.09-1.16-2.25-2.1-2.21-1.8-3.63-3.18-4.27-4.16-.64-.98-.96-1.95-.96-2.92,0-1.4.53-2.61,1.6-3.61,1.07-1,2.39-1.51,3.96-1.51,1.01,0,1.97.23,2.89.7.91.47,1.9,1.32,2.97,2.56Z" style="fill:#000100;"/><path d="m219.03,27.8h3.83v20.24h-3.83v-20.24Z" style="fill:#000100;"/><path d="m226.69,27.8h4.56c2.94,0,5.13.37,6.56,1.09s2.61,1.92,3.53,3.56c.93,1.64,1.39,3.56,1.39,5.75,0,1.56-.26,2.99-.78,4.3-.52,1.31-1.23,2.39-2.15,3.25-.91.86-1.9,1.46-2.96,1.79-1.06.33-2.9.5-5.53.5h-4.63v-20.24Zm3.83,3.71v12.77h1.79c1.76,0,3.04-.2,3.83-.61.79-.4,1.44-1.08,1.95-2.04.5-.96.76-2.13.76-3.53,0-2.15-.6-3.82-1.8-5-1.08-1.06-2.82-1.6-5.21-1.6h-1.31Z" style="fill:#000100;"/><path d="m252.07,27.8h3.91l7.78,20.24h-4l-1.58-4.17h-8.26l-1.65,4.17h-4l7.8-20.24Zm1.98,5.37l-2.72,6.95h5.41l-2.7-6.95Z" style="fill:#000100;"/><path d="m266.25,27.8h4.56c2.94,0,5.13.37,6.55,1.09,1.43.73,2.61,1.92,3.53,3.56.93,1.64,1.39,3.56,1.39,5.75,0,1.56-.26,2.99-.78,4.3-.52,1.31-1.23,2.39-2.15,3.25-.91.86-1.9,1.46-2.96,1.79-1.06.33-2.9.5-5.52.5h-4.63v-20.24Zm3.82,3.71v12.77h1.79c1.76,0,3.04-.2,3.83-.61.79-.4,1.44-1.08,1.95-2.04.5-.96.76-2.13.76-3.53,0-2.15-.6-3.82-1.8-5-1.08-1.06-2.82-1.6-5.21-1.6h-1.31Z" style="fill:#000100;"/><path d="m292.84,27.8h4.56c2.94,0,5.13.37,6.56,1.09,1.43.73,2.61,1.92,3.53,3.56.93,1.64,1.39,3.56,1.39,5.75,0,1.56-.26,2.99-.78,4.3-.52,1.31-1.23,2.39-2.14,3.25-.91.86-1.9,1.46-2.96,1.79-1.06.33-2.91.5-5.53.5h-4.63v-20.24Zm3.83,3.71v12.77h1.79c1.76,0,3.04-.2,3.83-.61.79-.4,1.44-1.08,1.95-2.04.5-.96.76-2.13.76-3.53,0-2.15-.6-3.82-1.8-5-1.08-1.06-2.82-1.6-5.21-1.6h-1.31Z" style="fill:#000100;"/><path d="m312.06,27.8h11.05v3.77h-7.22v3.66h7.22v3.7h-7.22v5.32h7.22v3.78h-11.05v-20.24Z" style="fill:#000100;"/><path d="m331.57,27.8h11.18v3.8h-3.69v16.44h-3.91v-16.44h-3.59v-3.8Z" style="fill:#000100;"/><path d="m351.07,27.8h3.91l7.78,20.24h-4l-1.58-4.17h-8.26l-1.65,4.17h-4l7.8-20.24Zm1.98,5.37l-2.71,6.95h5.41l-2.7-6.95Z" style="fill:#000100;"/><path d="m365.49,27.8h4.08c2.24,0,3.83.2,4.78.6.95.4,1.71,1.06,2.29,1.99.58.93.87,2.02.87,3.29,0,1.33-.32,2.44-.96,3.34-.64.9-1.6,1.57-2.88,2.03l4.79,9h-4.21l-4.55-8.57h-.35v8.57h-3.85v-20.24Zm3.85,7.91h1.21c1.23,0,2.07-.16,2.53-.48.46-.32.69-.86.69-1.6,0-.44-.11-.83-.34-1.15-.23-.33-.54-.56-.92-.7-.38-.14-1.09-.21-2.11-.21h-1.05v4.16Z" style="fill:#000100;"/><path d="m387.24,27.8h3.91l7.78,20.24h-4l-1.58-4.17h-8.26l-1.65,4.17h-4l7.8-20.24Zm1.98,5.37l-2.71,6.95h5.41l-2.7-6.95Z" style="fill:#000100;"/><path d="m401.38,27.8h4.09c2.21,0,3.8.2,4.78.61.98.41,1.75,1.07,2.31,1.98.56.91.85,2.01.85,3.28,0,1.41-.37,2.59-1.11,3.52-.74.94-1.74,1.59-3,1.95-.74.21-2.09.32-4.06.32v8.57h-3.85v-20.24Zm3.85,7.91h1.22c.96,0,1.63-.07,2.01-.21.38-.14.67-.37.89-.68.22-.32.32-.7.32-1.15,0-.78-.3-1.35-.91-1.71-.44-.27-1.26-.4-2.45-.4h-1.09v4.16Z" style="fill:#000100;"/><path d="m422.84,27.8h3.91l7.78,20.24h-4l-1.58-4.17h-8.26l-1.65,4.17h-4l7.8-20.24Zm1.98,5.37l-2.71,6.95h5.41l-2.7-6.95Z" style="fill:#000100;"/><path d="m455.6,31.35l-2.69,2.57c-1.83-1.94-3.89-2.91-6.19-2.91-1.93,0-3.56.66-4.89,1.98-1.33,1.32-1.99,2.95-1.99,4.89,0,1.35.29,2.55.88,3.59.59,1.05,1.42,1.87,2.49,2.46,1.07.6,2.26.9,3.57.9,1.12,0,2.14-.21,3.06-.63.92-.42,1.94-1.18,3.05-2.28l2.61,2.72c-1.49,1.46-2.91,2.47-4.24,3.03-1.33.57-2.85.85-4.55.85-3.15,0-5.72-1-7.72-2.99-2-1.99-3.01-4.55-3.01-7.67,0-2.02.46-3.81,1.37-5.38.91-1.57,2.22-2.83,3.92-3.78,1.7-.95,3.53-1.43,5.5-1.43,1.67,0,3.28.35,4.82,1.06,1.55.71,2.88,1.71,4,3.01Z" style="fill:#000100;"/><path d="m464.64,27.8h3.91l7.78,20.24h-4l-1.58-4.17h-8.26l-1.65,4.17h-4l7.8-20.24Zm1.98,5.37l-2.71,6.95h5.41l-2.7-6.95Zm.65-12.33h4.44l-5.04,5.39h-2.7l3.29-5.39Z" style="fill:#000100;"/></g><g><polygon points="90.19 0 .02 0 .02 110.13 21.9 129.15 69.26 128.34 90.2 109.32 90.19 0" style="fill:#428ecc;"/><polygon points="90.19 0 .02 0 .02 24.83 16.35 24.83 16.35 16.73 28.69 16.73 28.69 30.77 61.41 30.77 61.41 16.73 73.56 16.73 73.56 24.56 90.18 24.56 90.19 0" style="fill:#ebaf31;"/><polygon points="86.65 3.57 3.33 3.57 3.33 20.9 12.23 20.9 12.23 12.28 32.2 12.28 32.2 26.92 57.91 26.92 57.91 12.21 78.15 12.21 78.15 20.85 86.65 20.85 86.65 3.57" style="fill:#1d1c3b;"/><path d="m45.04,112.35v-.09h15.36v4.38c12.82-1.15,13.49-12.88,13.49-12.88V27.59h16.29v84.67l-18.92,18.76H18.88L0,112.26V27.59h16.25v76.17s.67,11.74,13.49,12.88v-4.38h15.3v.09Z" style="fill:#ebaf31;"/><path d="m45.09,126.84h-24.42L3.93,110.2V31.57h8.68v73.31s1.26,15.47,18.94,15.84c1.53.09,2.29.09,2.29.09v-4.81h22.67v4.81s.76,0,2.29-.09c17.68-.36,18.94-15.84,18.94-15.84V31.57h8.68v78.62l-16.73,16.64h-24.6Z" style="fill:#1d1c3b;"/><path d="m45.29,109.33l-12.55-.03c-10.73-2.03-11.65-10.12-11.65-10.12V33.73h47.95v65.44s-.74,8.1-11.47,10.12l-12.55.03h.27Z" style="fill:#1d1c3b;"/><polygon points="66.26 36.3 24 36.3 24 71.56 66.3 71.56 66.26 36.3" style="fill:#ebaf31;"/><g><g><polygon points="51.46 45.42 45.08 45.42 45.07 45.42 38.68 45.42 32.52 61.44 45.07 61.44 45.08 61.44 57.63 61.44 51.46 45.42" style="fill:#1d1c3b;"/><path d="m58.67,62.2l-6.71-17.47h-13.76l-6.71,17.47h12.45l1.15.75h0s0,0,0,0h0s0,0,0,0l1.15-.75h12.45Zm-13.6-.76h-12.55l6.16-16.02h12.78l6.16,16.02h-12.55Z" style="fill:#1d1c3b;"/></g><polygon points="51.46 45.42 45.08 45.42 45.07 45.42 38.68 45.42 32.52 61.44 45.07 61.44 45.08 61.44 57.63 61.44 51.46 45.42" style="fill:#ebaf31;"/></g><path d="m46.67,52.79h5.87s.67.17.67,1.21c-.07.81-1.11.84-1.11.84,0,0-.47.3.44.61.91.3,1.52,1.55,1.52,2.23s-.47,2.46-1.89,2.46h-3.61s-1.79-.27-1.99-2.4c-.17-1.96,1.58-2.36,1.58-2.36,0,0,.47-.03.3-.54-.17-.51-1.79-2.06-1.79-2.06Z" style="fill:#1b1d3a;"/><path d="m52.48,53.57h-4.05s.84.81.84,1.55-2.06.95-2.06,2.56,1.62,1.89,1.62,1.89h3.14s1.42-.2,1.35-1.86c-.07-1.65-1.92-1.58-1.96-2.49-.03-.91.91-.88.91-.88,0,0,.47,0,.2-.77Z" style="fill:#ebaf31;"/><g><path d="m47.92,39.43v-.84h-.27v-.34h-5.13v.34h-.27v.84c-1.08-.17-1.28.39-1.28.64v.81c0,1.04.88.88.88.88v1.75h6.48v-1.75s.88.17.88-.88v-.81c0-.25-.2-.81-1.28-.64Z" style="fill:#fff;"/><path d="m48.51,43.7h-6.85v-1.75c-.26-.01-.88-.15-.88-1.07v-.81c0-.32.23-.86,1.09-.86.06,0,.12,0,.19,0v-.82h.27v-.34h5.5v.34h.27v.82c.07,0,.13,0,.19,0,.86,0,1.09.54,1.09.86v.81c0,.4-.12.7-.35.89-.17.14-.37.18-.52.19v1.74Zm-6.48-.37h6.1v-1.79l.22.04s.04,0,.09,0h0c.1,0,.24-.02.35-.11.14-.11.21-.31.21-.59v-.81c0-.08-.03-.49-.72-.49-.11,0-.22.01-.34.03l-.21.03v-.87h-.27v-.34h-4.75v.34h-.27v.87l-.21-.03c-.12-.02-.24-.03-.34-.03-.69,0-.72.41-.72.49v.81c0,.47.19.7.56.7.05,0,.09,0,.1,0l.22-.04v1.79Z" style="fill:#1b1d3a;"/></g><g><polygon points="32.61 56.5 27.24 59.3 30.89 59.47 32.61 56.5" style="fill:#428ecc;"/><path d="m30.99,59.66l-4.44-.21,6.54-3.41-2.1,3.62Zm-3.05-.51l2.85.13,1.34-2.32-4.19,2.19Z" style="fill:#1b1d3a;"/></g><g><polygon points="33.75 66.15 30.72 66.15 30.18 70.2 33.75 66.15" style="fill:#428ecc;"/><path d="m29.91,70.78l.64-4.81h3.61l-4.25,4.81Zm.96-4.44l-.44,3.29,2.9-3.29h-2.46Z" style="fill:#1b1d3a;"/></g><g><polygon points="35.61 67.7 54.8 67.7 54.8 68.28 55.01 68.28 55.01 69.63 54.77 69.63 54.77 69.86 35.61 69.86 35.61 69.63 35.37 69.63 35.37 68 35.58 68 35.61 67.7" style="fill:#fff;"/><path d="m54.95,70.05h-19.53v-.23h-.24v-1.99h.22l.04-.3h19.54v.57h.2v1.72h-.24v.23Zm-19.16-.37h18.79v-.23h.24v-.98h-.2v-.57h-18.84l-.03.3h-.19v1.25h.24v.23Z" style="fill:#1b1d3a;"/></g><path d="m40.51,50.88s-.03-1.02-.03-1.56c0-.57.36-1.67,1.7-1.71.7-.02.97.31,1.19.57.19.23.35.42.79.44.92.05,1.12-.51,1.12-.52l.42.13s-.3.91-1.57.83c-.64-.04-.9-.35-1.1-.6-.2-.25-.35-.42-.83-.41-1.25.04-1.27,1.21-1.27,1.26,0,.53.03,1.54.03,1.55h-.45Z" style="fill:#1b1d3a;"/><path d="m36.37,57.38h-.44c.01-.85.24-1.47.67-1.85.49-.44,1.07-.4,1.09-.39h2.64c.68,0,1.2-.21,1.54-.59.53-.61.44-1.48.44-1.49l.44-.05s.12,1.08-.54,1.84c-.42.48-1.05.73-1.87.74h-2.67s-.44-.03-.78.29c-.33.3-.5.81-.51,1.52Z" style="fill:#1b1d3a;"/><path d="m37.95,58.92c-.16.28-.31.56-.47.84-.14.25.25.47.38.22.16-.28.31-.56.47-.84.14-.25-.24-.47-.38-.22h0Z" style="fill:#1b1d3a;"/><path d="m44.84,46.63c-.17.26-.34.52-.51.78-.16.24.23.46.38.22.17-.26.34-.52.51-.78.16-.24-.23-.46-.38-.22h0Z" style="fill:#1b1d3a;"/><path d="m42.74,49.68c-1,1.47-2.01,2.95-3.01,4.42-.2.3.28.58.48.28,1-1.47,2-2.95,3.01-4.42.2-.3-.28-.57-.48-.28h0Z" style="fill:#1b1d3a;"/><path d="m38.23,56.37c-.77,1.08-1.53,2.16-2.3,3.24-.17.23.22.46.38.22.77-1.08,1.53-2.16,2.3-3.24.17-.23-.22-.46-.38-.22h0Z" style="fill:#1b1d3a;"/><g><path d="m53.48,45.88l1.01,2.27,1.05-.54s.54.9,2.05.63c1.5-.27,1.64-2,1.39-2.72-.25-.72-1.03-1.24-1.91-1.19-.88.04-3.6,1.55-3.6,1.55Z" style="fill:#428ecc;"/><path d="m57.05,48.47c-.88,0-1.37-.41-1.56-.63l-1.09.56-1.16-2.61.15-.08c.11-.06,2.77-1.53,3.68-1.58.95-.05,1.82.51,2.1,1.32.18.52.16,1.4-.23,2.06-.29.49-.74.8-1.31.9-.2.04-.39.05-.57.05Zm-1.44-1.11l.09.15s.38.59,1.35.59c.16,0,.33-.02.51-.05.47-.08.82-.33,1.05-.72.33-.56.35-1.32.2-1.75-.23-.66-.94-1.11-1.73-1.07-.64.03-2.52.99-3.37,1.45l.86,1.94,1.04-.53Z" style="fill:#1b1d3a;"/></g><polygon points="45.06 64.89 43.42 63.63 30.97 63.63 30.97 62.98 43.64 62.98 45.07 64.07 46.51 62.98 59.17 62.98 59.17 63.63 46.73 63.63 45.06 64.89" style="fill:#1b1d3a;"/><polygon points="45.06 66.17 43.42 64.92 30.97 64.92 30.97 64.27 43.64 64.27 45.07 65.36 46.51 64.27 59.17 64.27 59.17 64.92 46.73 64.92 45.06 66.17" style="fill:#1b1d3a;"/><g><polygon points="39.35 66.36 40.52 66.36 40.52 67.44 39.35 66.36" style="fill:#1d1c3b;"/><path d="m40.54,67.48l-.03-.03-1.21-1.11h1.24v1.14Zm-1.14-1.1l1.1,1.02v-1.02h-1.1Z" style="fill:#1b1d3a;"/></g><g><polygon points="42.95 66.36 44.12 66.36 44.12 67.44 42.95 66.36" style="fill:#1d1c3b;"/><path d="m44.14,67.48l-1.23-1.14h1.23v1.14Zm-1.14-1.1l1.1,1.02v-1.02h-1.1Z" style="fill:#1b1d3a;"/></g><g><polygon points="46.1 66.36 47.27 66.36 47.27 67.44 46.1 66.36" style="fill:#1d1c3b;"/><path d="m47.29,67.48l-.03-.03-1.2-1.11h1.24v1.14Zm-1.14-1.1l1.1,1.02v-1.02h-1.1Z" style="fill:#1b1d3a;"/></g><g><polygon points="49.59 66.36 50.76 66.36 50.76 67.44 49.59 66.36" style="fill:#1d1c3b;"/><path d="m50.77,67.48l-.03-.03-1.2-1.11h1.24v1.14Zm-1.14-1.1l1.1,1.02v-1.02h-1.1Z" style="fill:#1b1d3a;"/></g><path d="m66.27,95.94v3.34h-13.96s-.34-.34.17-.91c.5-.57,1.82-2.39,1.82-2.39l11.97-.03Z" style="fill:#428ecc;"/><path d="m53.45,95.97s-2.83,3.14-3.03,3.47c-.2.34-.03,1.72-.03,1.72,0,0,.41,1.72-.2,2.83h-9.65s-.44-1.49-2.56-2.87c0-.77-.1-1.28-.1-1.28l-.4-.03s-.47.51-.58.91c-.1.41-3.54-.07-3.61,1.86-.13.77.88,1.32.88,1.32v.4h-1.99s-.13-1.38-1.38-1.38-1.96-.03-1.96-.03c0,0-.67-.14-.67-1.76.07-1.18.98-1.32.98-1.32l5.36.03s3.58-.07,3.61-3.91h1.42s-.64.88-.2,2.63c-.67.51-1.01.81-.74,1.82.27,1.01.71,1.38,1.58,1.52.24.47.54,1.48.54,1.48h9.04s.54-.17-.17-3.74c.64-.54.81-.88.71-1.96-.1-1.08-1.52-1.38-1.52-1.38v-.34h4.69Z" style="fill:#428ecc;"/><polygon points="50.32 89.7 48.22 93.84 51.77 91.12 52.62 93.9 55.41 90.37 56.66 90.44 56.71 89.95 52.97 86.39 50.32 89.7" style="fill:#fff;"/><path d="m47.69,94.5l2.44-4.85,2.84-3.59,4,3.85-.07.71-1.34-.07-3,3.81-.89-2.95-3.98,3.08Zm4.13-3.55l.86,2.82,2.76-3.5,1.22.06.03-.3-3.68-3.54-2.63,3.32-1.86,3.71,3.31-2.56Z" style="fill:#1b1d3a;"/><g><polygon points="61.13 87.39 58.99 91.85 62.68 88.9 63.56 91.89 66.31 88.47 66.29 86.88 63.77 83.95 61.13 87.39" style="fill:#fff;"/><path d="m58.59,92.35l2.42-5.01,2.76-3.6,2.67,3.09.02,1.7-.03.04-2.92,3.62-.9-3.04-4.01,3.2Zm4.17-3.69l.86,2.93,2.55-3.16-.02-1.49-2.37-2.75-2.53,3.3-1.86,3.87,3.37-2.69Z" style="fill:#1b1d3a;"/></g><path d="m46.49,94.87l-5.65,1.23s-1.42.29-1.1,1.42c.32,1.13,1.59.69,1.59.69l5.82-1.27s1.08-.1.83-1.31c-.14-1.06-1.49-.76-1.49-.76Z" style="fill:#fff;"/><path d="m48.37,99.83l-7.22,1.69s-.03.79.32.89c.35.1,7.49,0,7.49,0,0,0,.02-1.84-.59-2.58Z" style="fill:#fff;"/><path d="m31.68,104.72l29.4.02s-.66,1.67-3.15,1.69c-2.5.02-25.84,0-25.84,0,0,0-7.84-3.51-8.18-8.01v-2.46h13.68s.1,2.92-2.83,2.92h-5.14s-1.92-.05-1.92,2.33,1.28,2.33,1.28,2.33h2.04s.76.24.67,1.2Z" style="fill:#ebaf31;"/><path d="m23.9,95.38v-13.44s3.96-1.28,5.08-1.38c1.12-.1,2.34-.3,3.27.18.93.49,1.03,1.67,1.28,2.01.25.34,1.06.47,1.26.84.21.38.09.64.05.91-.03.27-.53.39-.48,1.18.05.79.41.47,1.22.56.81.09,1.03,1.92.67,2.39-.35.47-.5.68-.52,1.14-.02.47,1.85,2.2,1.85,2.2l-.02,3.39-13.68.02Z" style="fill:#ebaf31;"/><path d="m38.21,95.35l3,.02s1.5-.03,1.5-.4v-.64s-2.58.32-3.68-2.14c-.22-.59-.35-1.45-.35-1.45,0,0-.29-2.68,2.23-3.46l-.05-.74s-1.67.34-1.85-2.06c-.19-2.39.2-2.88,1.41-3.07,1.21-.19,2.08.99,2.3,2.01.22,1.01.37,2.75-.69,3,0,.25.08.59.08.59,0,0,2.82-.3,3.73,2.23.91,2.53-.66,4.47-1.92,4.86-.03.22-.03.52-.03.52l1.47.02,1-.61,6.64-8.23,5.1,5.06,5.67-7.49,2.56,3.11v-11.91H23.9v6.78s3.32-1.63,5.57-1.67v-3.54s.81-.18,1.2-.05c.39.13,1.62.66,1.65.88.04.22,0,1.74,0,1.74h-.77s-.61-.69-1.43-.54v1.45s1.7-.07,2.5.18c.79.25,1.23,1.94,1.7,2.23.47.29,1.42.98,1.45,1.5.03.52-.52,1.3-.29,1.6.24.3,1.45.19,1.55,1.2.42,2.51-.32,2.68-.24,3.31.08.62,1.3.79,1.38,1.7.08.91.03,4.03.03,4.03Z" style="fill:#fff;"/><path d="m39.76,91.37c3.49-.13,5.5-1.27,5.5-1.27,0,0,.52,3.04-1.8,3.41,0,0-3.49.73-3.69-2.14Z" style="fill:#ebaf31;"/><path d="m41.26,85.12s.14-2.85-1.1-2.82c-1.24.03-.68,2.37-.55,2.76.12.4.47,1.18,1.08,1.02.61-.15.57-.96.57-.96Z" style="fill:#fff;"/></g></g></svg>