<?xml version="1.0" encoding="UTF-8"?><svg id="Capa_2" xmlns="http://www.w3.org/2000/svg" viewBox="0 0 133.2 193.5"><defs><style>.cls-1{fill:#fff;}.cls-2{fill:none;}</style></defs><g id="Capa_1-2"><g><path class="cls-1" d="M.03,0V36.67H24.14v-11.95h18.23v20.73h48.33V24.71h17.94v11.56h24.55V0S.03,0,.03,0ZM127.97,30.79h-12.55v-12.75h-29.89v21.72H47.56V18.14H18.07v12.74H4.91V5.28H127.97V30.79Z"/><path class="cls-1" d="M109.14,40.75v112.49s-1,17.34-19.93,19.03v-6.48h-22.69v0h-22.59v6.48c-18.93-1.7-19.93-19.03-19.93-19.03V40.75H0v125.05l27.89,27.7H105.25l27.95-27.7V40.75h-24.06Zm18.5,121.99l-24.71,24.58H30.52l-24.71-24.58V46.63h12.82v108.28s1.86,22.85,27.97,23.39c2.26,.13,3.39,.13,3.39,.13v-7.11h33.48v7.11s1.13,0,3.39-.13c26.11-.54,27.96-23.39,27.96-23.39V46.63h12.82v116.12Z"/><path class="cls-1" d="M76.73,66.06h-20.33l-9.92,25.81h18.38l1.69,1.11h0s0,0,0,0h0s0,0,0,0l1.69-1.11h18.38l-9.92-25.81Zm-10.16,24.68h-18.54l9.1-23.66h18.88l9.1,23.66h-18.54Z"/><path class="cls-1" d="M77.6,81.91c-1.34-.45-.65-.9-.65-.9,0,0,1.54-.05,1.64-1.25,0-1.54-1-1.79-1-1.79h-8.67s2.39,2.29,2.64,3.04c.25,.75-.45,.8-.45,.8,0,0-2.59,.6-2.34,3.49,.3,3.14,2.94,3.54,2.94,3.54h5.33c2.09,0,2.79-2.64,2.79-3.64s-.9-2.84-2.24-3.29Zm-.85,6.08h-4.63s-2.39-.4-2.39-2.79,3.04-2.69,3.04-3.79-1.24-2.29-1.24-2.29h5.98c.4,1.14-.3,1.14-.3,1.14,0,0-1.39-.05-1.34,1.3,.05,1.34,2.79,1.25,2.89,3.68,.1,2.44-2,2.74-2,2.74Z"/><g><path class="cls-1" d="M71.33,57.92c-.09,0-.18,0-.28,.01v-1.21h-.4v-.5h-8.12v.5h-.4v1.21c-.1,0-.19-.01-.27-.01-1.28,0-1.62,.8-1.62,1.27v1.2c0,1.36,.91,1.56,1.3,1.58v2.58h10.11v-2.58c.22-.01,.52-.07,.77-.27,.35-.27,.52-.71,.52-1.31v-1.2c0-.47-.34-1.27-1.62-1.27Zm1.34,2.46c0,1.54-1.29,1.29-1.29,1.29v2.59h-9.56v-2.59s-1.29,.25-1.29-1.29v-1.2c0-.38,.3-1.2,1.89-.95v-1.25h.4v-.5h7.57v.5h.4v1.25c1.59-.25,1.89,.57,1.89,.95v1.2Z"/><path class="cls-1" d="M70.77,58.24v-1.25h-.4v-.5h-7.57v.5h-.4v1.25c-1.59-.25-1.89,.57-1.89,.95v1.2c0,1.54,1.29,1.29,1.29,1.29v2.59h9.56v-2.59s1.29,.25,1.29-1.29v-1.2c0-.38-.3-1.2-1.89-.95Zm1.62,2.14c0,.42-.1,.71-.31,.88-.17,.13-.37,.16-.52,.16-.08,0-.13,0-.14-.01l-.33-.06v2.65h-9.02v-2.64s-.32,.06-.32,.06c0,0-.06,.01-.14,.01-.55,0-.83-.35-.83-1.04v-1.2c0-.12,.05-.72,1.07-.72,.15,0,.32,.02,.51,.04l.31,.05v-1.29h.4v-.5h7.02v.5h.4v1.29l.32-.05c.18-.03,.35-.04,.51-.04,1.02,0,1.07,.6,1.07,.72v1.2Z"/></g><g><path class="cls-1" d="M39.21,87.81l6.56,.31,3.1-5.35-9.65,5.04Zm6.4,.03l-5.38-.25,7.92-4.14-2.54,4.39Z"/><path class="cls-1" d="M40.24,87.59l5.38,.25,2.54-4.39-7.92,4.14Zm5.23-.03l-4.2-.2,6.19-3.23-1.99,3.43Z"/></g><g><path class="cls-1" d="M45.13,97.43l-.95,7.11,6.28-7.11h-5.33Zm.24,.27h4.49l-5.28,5.98,.8-5.98Z"/><path class="cls-1" d="M45.37,97.7l-.8,5.98,5.28-5.98h-4.49Zm.24,.27h3.64l-4.29,4.85,.65-4.85Z"/></g><g><path class="cls-1" d="M81.21,100.56v-.85h-28.86l-.05,.45h-.33v2.94h.35v.35h28.84v-.35h.35v-2.54h-.3Zm.03,2.27h-.35v.35h-28.29v-.35h-.35v-2.39h.3l.05-.45h28.35v.85h.3v1.99Z"/><path class="cls-1" d="M80.94,99.99h-28.35l-.05,.45h-.3v2.39h.35v.35h28.29v-.35h.35v-1.99h-.3v-.85Zm.03,1.12v1.45h-.35v.35h-27.75v-.35h-.35v-1.84h.27l.05-.45h27.83v.85h.3Z"/></g><path class="cls-1" d="M59.83,75.14s-.05-1.51-.05-2.3c0-.85,.53-2.46,2.51-2.52,1.03-.03,1.43,.45,1.75,.84,.28,.35,.51,.62,1.17,.66,1.36,.08,1.66-.76,1.66-.77l.62,.2c-.02,.06-.44,1.34-2.32,1.23-.94-.06-1.32-.52-1.63-.89-.3-.36-.51-.63-1.23-.6-1.85,.05-1.88,1.79-1.88,1.86,0,.79,.05,2.27,.05,2.28l-.66,.02Z"/><path class="cls-1" d="M53.72,84.75h-.66c.02-1.25,.35-2.17,.98-2.74,.73-.65,1.58-.58,1.62-.58h3.9c1.01-.02,1.78-.31,2.27-.87,.79-.9,.64-2.19,.64-2.2l.65-.08c0,.06,.18,1.6-.8,2.71-.62,.71-1.55,1.08-2.76,1.09h-3.94c-.05,0-.65-.04-1.16,.42-.49,.44-.74,1.2-.76,2.24Z"/><path class="cls-1" d="M56.04,87.02c-.23,.42-.46,.83-.69,1.25-.21,.37,.36,.7,.57,.33,.23-.42,.46-.83,.69-1.25,.21-.37-.36-.7-.57-.33h0Z"/><path class="cls-1" d="M66.23,68.87c-.25,.38-.51,.76-.76,1.15-.23,.35,.33,.68,.57,.33,.25-.38,.5-.76,.76-1.15,.23-.35-.33-.68-.57-.33h0Z"/><path class="cls-1" d="M63.13,73.38c-1.48,2.17-2.96,4.35-4.44,6.52-.3,.44,.41,.85,.71,.42,1.48-2.18,2.96-4.35,4.44-6.53,.3-.44-.41-.85-.71-.41h0Z"/><path class="cls-1" d="M56.47,83.26c-1.13,1.59-2.26,3.19-3.39,4.78-.25,.35,.32,.67,.57,.33,1.13-1.59,2.26-3.19,3.39-4.78,.25-.35-.32-.67-.57-.33h0Z"/><g><path class="cls-1" d="M87.37,67.14c-.41-1.2-1.69-2.02-3.09-1.95-1.34,.07-5.26,2.23-5.43,2.33l-.22,.12,1.71,3.85,1.61-.83c.29,.33,1,.93,2.31,.93,.27,0,.55-.03,.85-.08,.84-.15,1.51-.61,1.93-1.33,.57-.98,.6-2.27,.33-3.04Zm-2.31,4.11c-2.23,.4-3.03-.93-3.03-.93l-1.56,.8-1.49-3.35s4.02-2.23,5.31-2.29c1.3-.07,2.46,.7,2.82,1.76,.37,1.06,.17,3.62-2.06,4.02Z"/><path class="cls-1" d="M84.29,65.46c-1.29,.07-5.31,2.29-5.31,2.29l1.49,3.35,1.56-.8s.8,1.33,3.03,.93c2.22-.4,2.42-2.96,2.06-4.02-.37-1.06-1.53-1.83-2.82-1.76Zm2.27,4.44c-.34,.59-.87,.95-1.55,1.07-.26,.05-.51,.07-.75,.07-1.44,0-1.97-.84-1.99-.87l-.13-.22-1.53,.78-1.27-2.86c1.25-.68,4.02-2.09,4.97-2.14,1.16-.06,2.22,.61,2.55,1.58,.22,.64,.19,1.77-.29,2.59Z"/></g><polygon class="cls-1" points="66.56 95.83 64.13 93.98 45.74 93.98 45.74 93.02 64.46 93.02 66.56 94.62 68.69 93.02 87.38 93.02 87.38 93.98 69.01 93.98 66.56 95.83"/><polygon class="cls-1" points="66.56 97.72 64.13 95.87 45.74 95.87 45.74 94.91 64.46 94.91 66.56 96.52 68.69 94.91 87.38 94.91 87.38 95.87 69.01 95.87 66.56 97.72"/><g><polygon class="cls-1" points="58.12 98.01 59.85 98.01 59.85 99.61 58.12 98.01"/><path class="cls-1" d="M59.88,99.67l-.05-.04-1.78-1.64h1.83v1.68Zm-1.69-1.63l1.63,1.5v-1.5h-1.63Z"/></g><g><polygon class="cls-1" points="63.44 98.01 65.16 98.01 65.16 99.61 63.44 98.01"/><path class="cls-1" d="M65.19,99.67l-1.82-1.68h1.82v1.68Zm-1.68-1.63l1.63,1.5v-1.5h-1.63Z"/></g><g><polygon class="cls-1" points="68.09 98.01 69.81 98.01 69.81 99.61 68.09 98.01"/><path class="cls-1" d="M69.84,99.67l-.05-.04-1.78-1.64h1.83v1.68Zm-1.69-1.63l1.63,1.5v-1.5h-1.63Z"/></g><g><polygon class="cls-1" points="73.23 98.01 74.96 98.01 74.96 99.61 73.23 98.01"/><path class="cls-1" d="M74.99,99.67l-.05-.04-1.78-1.64h1.83v1.68Zm-1.69-1.63l1.63,1.5v-1.5h-1.63Z"/></g><path class="cls-2" d="M61.26,151.25c.52,.15,11.06,0,11.06,0,0,0,.02-2.71-.87-3.81l-10.66,2.49s-.05,1.17,.47,1.32Z"/><path class="cls-2" d="M59.32,121.56c-1.83,.05-1,3.5-.82,4.08,.18,.59,.69,1.74,1.59,1.51,.9-.23,.85-1.42,.85-1.42,0,0,.21-4.21-1.62-4.16Z"/><path class="cls-2" d="M43.52,112.42s1.2-.27,1.77-.07c.57,.2,2.39,.97,2.44,1.29,.05,.32,0,2.57,0,2.57h-1.14s-.9-1.02-2.12-.8v2.14s2.51-.1,3.69,.27c1.17,.37,1.82,2.87,2.52,3.29,.7,.43,2.09,1.44,2.14,2.22,.05,.77-.77,1.92-.42,2.36,.35,.45,2.14,.28,2.29,1.77,.62,3.71-.47,3.96-.35,4.88,.12,.92,1.92,1.17,2.04,2.52,.12,1.35,.05,5.95,.05,5.95l4.43,.03s2.22-.05,2.22-.6v-.95s-3.81,.48-5.43-3.16c-.33-.87-.52-2.14-.52-2.14,0,0-.42-3.96,3.29-5.11l-.08-1.1s-2.46,.5-2.74-3.04c-.28-3.54,.3-4.26,2.09-4.53,1.79-.27,3.06,1.47,3.39,2.96,.32,1.5,.55,4.06-1.02,4.43,0,.38,.12,.87,.12,.87,0,0,4.16-.45,5.5,3.29,1.35,3.74-.97,6.6-2.84,7.18-.05,.32-.05,.77-.05,.77l2.17,.03,1.47-.9,9.81-12.16,7.53,7.47,8.37-11.06,3.78,4.59v-17.59H35.3v10.01s4.91-2.41,8.22-2.46v-5.23Z"/><polygon class="cls-2" points="83.86 133.63 83.93 132.89 78.26 127.42 74.23 132.5 71.04 138.84 76.42 134.67 77.72 138.93 81.97 133.53 83.86 133.63"/><polygon class="cls-2" points="97.86 53.6 35.44 53.6 35.44 105.69 97.92 105.69 97.86 53.6"/><path class="cls-2" d="M68.66,140.12l-8.35,1.82s-2.09,.42-1.62,2.09c.47,1.66,2.34,1.02,2.34,1.02l8.59-1.87s1.59-.15,1.22-1.94c-.2-1.57-2.19-1.12-2.19-1.12Z"/><polygon class="cls-2" points="94.18 123.99 90.29 129.07 87.12 135.65 92.57 131.3 93.87 135.71 97.94 130.67 97.91 128.31 94.18 123.99"/><path class="cls-1" d="M66.69,49.82H31.15v96.65s1.37,11.96,17.21,14.95l18.33,.05,18.33-.05c15.84-2.99,16.94-14.95,16.94-14.95V49.82h-35.27Zm-31.25,3.79h62.42l.07,52.08H35.44V53.6Zm-.14,56.5h62.62v17.59l-3.78-4.59-8.37,11.06-7.53-7.47-9.81,12.16-1.47,.9-2.17-.03s0-.45,.05-.77c1.87-.57,4.18-3.44,2.84-7.18-1.34-3.73-5.5-3.29-5.5-3.29,0,0-.12-.5-.12-.87,1.57-.38,1.34-2.94,1.02-4.43-.33-1.5-1.6-3.24-3.39-2.96-1.79,.27-2.37,.99-2.09,4.53,.27,3.54,2.74,3.04,2.74,3.04l.08,1.1c-3.71,1.15-3.29,5.11-3.29,5.11,0,0,.2,1.27,.52,2.14,1.62,3.64,5.43,3.16,5.43,3.16v.95c0,.55-2.22,.6-2.22,.6l-4.43-.03s.08-4.61-.05-5.95c-.12-1.34-1.92-1.6-2.04-2.52-.13-.92,.97-1.17,.35-4.88-.15-1.49-1.95-1.32-2.29-1.77-.35-.45,.47-1.59,.42-2.36-.05-.78-1.44-1.8-2.14-2.22-.7-.42-1.34-2.91-2.52-3.29-1.17-.37-3.69-.27-3.69-.27v-2.14c1.22-.22,2.12,.8,2.12,.8h1.14s.05-2.24,0-2.57c-.05-.33-1.86-1.1-2.44-1.29-.58-.2-1.77,.07-1.77,.07v5.23c-3.31,.05-8.22,2.46-8.22,2.46v-10.01Zm39.11,39.31s.6,2.54-.3,4.18h-14.25s-.65-2.19-3.79-4.24c0-1.14-.15-1.89-.15-1.89l-.6-.05s-.7,.75-.85,1.34c-.15,.6-5.23-.1-5.33,2.74-.2,1.14,1.3,1.94,1.3,1.94v.6h-2.94s-.2-2.05-2.04-2.05-2.89-.05-2.89-.05c0,0-1-.2-1-2.59,.1-1.74,1.45-1.94,1.45-1.94l7.92,.05s5.28-.1,5.33-5.78h2.09s-.94,1.29-.3,3.89c-.99,.75-1.49,1.2-1.09,2.69,.4,1.5,1.05,2.04,2.34,2.24,.35,.7,.8,2.19,.8,2.19h13.35s.8-.25-.25-5.53c.95-.8,1.2-1.29,1.04-2.89-.15-1.59-2.24-2.04-2.24-2.04v-.5h6.93s-4.18,4.63-4.48,5.13c-.3,.5-.05,2.54-.05,2.54Zm-14.31-22.27c-.9,.23-1.41-.92-1.59-1.51-.18-.58-1.01-4.03,.82-4.08,1.83-.05,1.62,4.16,1.62,4.16,0,0,.05,1.2-.85,1.42Zm6.74,5.93s.77,4.49-2.67,5.03c0,0-5.16,1.07-5.45-3.16,5.16-.2,8.12-1.87,8.12-1.87Zm2.79,10.12l-8.59,1.87s-1.87,.64-2.34-1.02c-.47-1.67,1.62-2.09,1.62-2.09l8.35-1.82s1.99-.45,2.19,1.12c.37,1.79-1.22,1.94-1.22,1.94Zm1.81,4.26c.9,1.1,.87,3.81,.87,3.81,0,0-10.54,.15-11.06,0-.52-.15-.47-1.32-.47-1.32l10.66-2.49Zm6.27-8.51l-1.29-4.26-5.38,4.17,3.19-6.33,4.02-5.08,5.67,5.46-.07,.74-1.89-.09-4.25,5.4Zm-42.41-17.92s5.86-1.89,7.5-2.04c1.65-.15,3.46-.45,4.83,.27,1.37,.72,1.52,2.47,1.89,2.96,.38,.5,1.57,.7,1.87,1.24,.3,.55,.13,.95,.08,1.34-.05,.4-.78,.57-.7,1.75,.08,1.17,.6,.69,1.79,.82,1.2,.13,1.52,2.84,1,3.54-.52,.7-.75,1-.77,1.69-.03,.7,2.74,3.24,2.74,3.24l-.02,5.01-20.2,.02v-19.85Zm50.24,36.17c-3.69,.03-38.16,0-38.16,0,0,0-11.58-5.18-12.08-11.83v-3.64h20.2s.15,4.31-4.19,4.31h-7.6s-2.84-.08-2.84,3.44,1.89,3.44,1.89,3.44h3.02s1.12,.35,.99,1.77l43.42,.02s-.97,2.47-4.66,2.49Zm12.33-10.56h-20.62s-.5-.5,.25-1.35c.74-.84,2.69-3.54,2.69-3.54l17.68-.05v4.94Zm-4-10.91l-1.3-4.41-5.45,4.35,3.17-6.58,3.9-5.08,3.72,4.32,.03,2.36-4.07,5.04Z"/></g></g></svg>