<?xml version="1.0" encoding="UTF-8"?><svg id="b" xmlns="http://www.w3.org/2000/svg" viewBox="0 0 476.33 131.25"><g id="c"><g><path d="m146.03,67.68l3.22-12.37h4.16l-3.19,12.26c-.1.38-.18.76-.24,1.15-.06.39-.11.83-.14,1.33-.03.5.06.96.28,1.36.22.41.59.72,1.12.94.53.22,1.24.33,2.12.33,1.17,0,2.13-.19,2.86-.57.73-.38,1.31-.92,1.75-1.63.43-.71.81-1.68,1.13-2.91l3.19-12.26h4.13l-3.22,12.37c-.14.53-.29,1.06-.47,1.59-.17.53-.36,1.05-.54,1.56-.37.85-1.17,1.92-2.42,3.19-1.24,1.28-3.67,1.91-7.28,1.91s-5.77-.59-6.32-1.77c-.55-1.18-.83-2-.83-2.44,0-.44,0-.8.01-1.06.01-.26.07-.57.16-.91.07-.26.13-.52.19-.75.06-.24.12-.47.18-.7l.16-.62Z" style="fill:#fff;"/><path d="m167.76,75.71h-3.8l3.89-14.95h7.19c1.34,0,2.41.16,3.21.48.8.32,1.33.88,1.6,1.69.27.8.22,1.91-.14,3.3l-2.46,9.48h-3.88l2.33-8.96c.08-.3.14-.59.18-.87.04-.27.06-.57.05-.88-.01-.31-.17-.54-.48-.69-.31-.15-.83-.23-1.57-.23h-3.08l-3.03,11.63Z" style="fill:#fff;"/><path d="m184.96,55.31h3.96l-.97,3.72h-3.97l.97-3.72Zm-1.42,5.45h3.96l-3.89,14.95h-3.97l3.89-14.95Z" style="fill:#fff;"/><path d="m194.74,75.71h-4.08l-2.25-14.95h4.24l1.28,10.64,7.01-10.64h4.13l-10.33,14.95Z" style="fill:#fff;"/><path d="m214.93,72.62l-.8,3.09h-5.59c-2.48,0-4.14-.68-4.99-2.04-.85-1.36-.98-3.18-.39-5.45.59-2.27,1.49-3.94,2.71-5.01,1.21-1.07,2.33-1.74,3.35-2.03,1.02-.28,2.09-.43,3.21-.43h5.59l-.8,3.09h-5.07c-.83,0-1.5.07-2.01.2-.51.13-.96.41-1.34.82-.44.44-.76,1.04-.97,1.82h8.64l-.82,3.15h-8.65c-.2.78-.22,1.37-.06,1.77.16.41.47.69.92.84.45.11,1.1.17,1.97.17h5.09Z" style="fill:#fff;"/><path d="m219.58,75.71h-3.8l3.89-14.95h6.44c1.17,0,2.01.17,2.51.51.5.34.75.8.77,1.39.01.59-.12,1.4-.39,2.44l-.26.99-.24.91h-3.63l.31-1.19c.2-.78.29-1.29.26-1.55-.02-.25-.15-.43-.39-.52-.23-.04-.43-.07-.61-.09-.18-.02-.48-.03-.9-.03h-.83l-3.14,12.09Z" style="fill:#fff;"/><path d="m237.53,75.71h-9.83l.8-3.09h8.07c1.36,0,2.17-.5,2.43-1.5.25-.96-.3-1.45-1.66-1.45h-3.33c-.48,0-.85,0-1.12-.03-.27-.02-.65-.07-1.14-.16-.49-.09-.91-.27-1.26-.57-.35-.29-.55-.73-.62-1.3-.07-.58,0-1.27.21-2.09.83-3.18,2.95-4.77,6.36-4.77h8.21l-.8,3.09h-7.45c-1.16,0-1.9.33-2.2,1l-.12.48c-.22.83.28,1.25,1.49,1.25h3.5c.7,0,1.31.08,1.85.24.54.16.98.42,1.33.77.35.35.58.79.69,1.33.11.54.07,1.16-.11,1.86-.22.85-.53,1.57-.92,2.15-.39.59-.74,1.03-1.03,1.32-.3.29-.72.61-1.27.95-.55.34-1.23.51-2.06.51Z" style="fill:#fff;"/><path d="m248.75,55.31h3.96l-.97,3.72h-3.96l.97-3.72Zm-1.42,5.45h3.97l-3.89,14.95h-3.96l3.89-14.95Z" style="fill:#fff;"/><path d="m264.81,55.31h3.88l-5.3,20.4h-7.38c-1.4,0-2.38-.18-2.96-.54-.58-.36-.94-.61-1.1-.75-.16-.14-.36-.38-.6-.71-.25-.33-.45-.77-.61-1.32-.16-.55-.24-1.14-.25-1.79,0-.64.08-1.31.25-1.99l.08-.31c.55-2.12,1.41-3.74,2.58-4.88,1.17-1.13,2.25-1.86,3.27-2.18,1.01-.32,2.16-.48,3.44-.48h3.28l1.41-5.45Zm-5.69,17.22h1.21l2.21-8.51-.87-.03h-1.07l-1.92.08c-.44,0-1.03.25-1.77.77-.58.47-1.03,1.03-1.34,1.66-.31.63-.57,1.36-.79,2.17-.21.79-.28,1.45-.22,1.97.06.52.32.96.78,1.33.46.37,1.39.55,2.79.55h.99Z" style="fill:#fff;"/><path d="m275.64,63.85h-6.42l.8-3.09h7.85c.94,0,1.77.09,2.5.28.73.19,1.36.69,1.9,1.49.54.8.58,2.08.12,3.82l-2.44,9.36h-10.27c-1.43,0-2.43-.4-2.99-1.19-.61-.76-.73-1.84-.37-3.24l.1-.4c.31-.85.69-1.55,1.13-2.11.44-.56.97-.99,1.58-1.3.61-.31,1.24-.53,1.89-.65.65-.12,1.42-.18,2.32-.18h5.07c.21-.8.22-1.4.04-1.8-.18-.41-.5-.67-.95-.79-.46-.12-1.08-.19-1.87-.19Zm-3.6,8.88h4.79l.81-3.12h-4.51c-.64,0-1.22.1-1.72.3-.5.2-.83.62-1,1.26-.11.44-.1.77.03,1.01.13.24.32.39.57.45.25.07.59.1,1.04.1Z" style="fill:#fff;"/><path d="m297.41,55.31h3.88l-5.3,20.4h-7.38c-1.4,0-2.38-.18-2.96-.54-.58-.36-.94-.61-1.1-.75-.15-.14-.35-.38-.6-.71-.25-.33-.45-.77-.61-1.32-.16-.55-.24-1.14-.25-1.79,0-.64.08-1.31.25-1.99l.08-.31c.55-2.12,1.41-3.74,2.58-4.88,1.17-1.13,2.26-1.86,3.27-2.18,1.01-.32,2.16-.48,3.44-.48h3.28l1.42-5.45Zm-5.69,17.22h1.21l2.21-8.51-.87-.03h-1.07l-1.92.08c-.44,0-1.03.25-1.77.77-.58.47-1.03,1.03-1.34,1.66-.31.63-.57,1.36-.78,2.17-.21.79-.28,1.45-.22,1.97.06.52.32.96.78,1.33.46.37,1.39.55,2.79.55h.99Z" style="fill:#fff;"/><path d="m320.67,55.31h3.88l-5.3,20.4h-7.38c-1.4,0-2.38-.18-2.96-.54-.58-.36-.94-.61-1.1-.75-.16-.14-.36-.38-.6-.71-.25-.33-.45-.77-.61-1.32-.16-.55-.25-1.14-.25-1.79,0-.64.08-1.31.25-1.99l.08-.31c.55-2.12,1.41-3.74,2.58-4.88,1.17-1.13,2.26-1.86,3.27-2.18,1.01-.32,2.16-.48,3.44-.48h3.28l1.42-5.45Zm-5.69,17.22h1.21l2.21-8.51-.87-.03h-1.07l-1.92.08c-.44,0-1.03.25-1.77.77-.58.47-1.03,1.03-1.34,1.66-.31.63-.57,1.36-.78,2.17-.21.79-.28,1.45-.22,1.97.06.52.32.96.78,1.33.46.37,1.39.55,2.79.55h.99Z" style="fill:#fff;"/><path d="m334.59,72.62l-.8,3.09h-5.59c-2.48,0-4.14-.68-4.99-2.04-.85-1.36-.98-3.18-.39-5.45.59-2.27,1.49-3.94,2.71-5.01,1.21-1.07,2.33-1.74,3.35-2.03,1.02-.28,2.09-.43,3.21-.43h5.59l-.8,3.09h-5.07c-.83,0-1.49.07-2.01.2-.51.13-.96.41-1.34.82-.44.44-.77,1.04-.97,1.82h8.65l-.82,3.15h-8.65c-.2.78-.22,1.37-.06,1.77.16.41.47.69.92.84.45.11,1.1.17,1.97.17h5.09Z" style="fill:#fff;"/><path d="m340.69,55.31h3.96l-5.3,20.4h-3.97l5.31-20.4Z" style="fill:#fff;"/><path d="m369.77,55.31l-.92,3.55h-6.83c-1.49,0-2.74.4-3.77,1.2-1.03.8-1.74,1.99-2.15,3.56h11.51l-.92,3.55h-11.51c-.44,1.7-.45,2.9-.02,3.59.43.69.89,1.1,1.38,1.22.49.12,1.17.18,2.03.18h6.83l-.92,3.55h-6.99c-1.32,0-2.42-.12-3.28-.36-.87-.23-1.67-.71-2.42-1.43-.86-.98-1.35-2.17-1.46-3.55-.11-1.38.05-2.88.46-4.48l.37-1.22c.19-.74.45-1.46.78-2.16.33-.7.68-1.36,1.07-1.99.38-.62.78-1.17,1.2-1.65.42-.47.99-1,1.71-1.59.72-.59,1.52-1.02,2.4-1.29.88-.28,1.68-.46,2.41-.55.73-.09,1.46-.14,2.17-.14h6.88Z" style="fill:#fff;"/><path d="m376.55,75.71h-9.83l.8-3.09h8.07c1.36,0,2.17-.5,2.43-1.5.25-.96-.3-1.45-1.66-1.45h-3.33c-.48,0-.85,0-1.12-.03-.27-.02-.65-.07-1.14-.16-.49-.09-.91-.27-1.26-.57-.35-.29-.55-.73-.62-1.3-.07-.58,0-1.27.21-2.09.83-3.18,2.95-4.77,6.36-4.77h8.21l-.81,3.09h-7.45c-1.16,0-1.9.33-2.2,1l-.13.48c-.22.83.28,1.25,1.49,1.25h3.5c.7,0,1.31.08,1.85.24.54.16.98.42,1.33.77.35.35.58.79.69,1.33.11.54.07,1.16-.11,1.86-.22.85-.53,1.57-.92,2.15-.39.59-.73,1.03-1.03,1.32-.3.29-.72.61-1.27.95-.55.34-1.23.51-2.06.51Z" style="fill:#fff;"/><path d="m386.79,63.74h-2.67l.78-2.98h2.67l1.42-5.45h3.83l-1.42,5.45h4.1l-.77,2.98h-4.1l-1.57,6.04c-.23.89-.26,1.55-.09,1.99.17.43.49.71.96.82.56.09,1.26.14,2.08.14h.38l-.77,2.98h-3.5c-1.45,0-2.44-.42-2.98-1.25-.54-.83-.62-1.97-.24-3.41l1.9-7.32Z" style="fill:#fff;"/><path d="m402.79,63.85h-6.41l.8-3.09h7.85c.94,0,1.77.09,2.5.28.73.19,1.36.69,1.9,1.49.54.8.58,2.08.12,3.82l-2.44,9.36h-10.27c-1.43,0-2.43-.4-2.99-1.19-.61-.76-.74-1.84-.37-3.24l.1-.4c.31-.85.69-1.55,1.13-2.11.44-.56.97-.99,1.58-1.3.61-.31,1.24-.53,1.89-.65.65-.12,1.42-.18,2.32-.18h5.07c.21-.8.22-1.4.04-1.8-.18-.41-.5-.67-.95-.79-.45-.12-1.08-.19-1.87-.19Zm-3.6,8.88h4.79l.81-3.12h-4.51c-.64,0-1.21.1-1.72.3-.5.2-.84.62-1,1.26-.11.44-.1.77.03,1.01.13.24.32.39.57.45.25.07.59.1,1.03.1Z" style="fill:#fff;"/><path d="m424.56,55.31h3.88l-5.3,20.4h-7.38c-1.4,0-2.38-.18-2.96-.54-.58-.36-.94-.61-1.1-.75-.16-.14-.36-.38-.6-.71-.25-.33-.45-.77-.61-1.32-.16-.55-.24-1.14-.25-1.79,0-.64.08-1.31.25-1.99l.08-.31c.55-2.12,1.41-3.74,2.58-4.88,1.17-1.13,2.26-1.86,3.27-2.18,1.01-.32,2.16-.48,3.44-.48h3.28l1.42-5.45Zm-5.69,17.22h1.21l2.21-8.51-.88-.03h-1.07l-1.92.08c-.44,0-1.03.25-1.77.77-.58.47-1.03,1.03-1.34,1.66-.31.63-.57,1.36-.78,2.17-.21.79-.28,1.45-.22,1.97.06.52.32.96.78,1.33.46.37,1.39.55,2.79.55h.99Z" style="fill:#fff;"/><path d="m438.36,73.92c-.87.66-1.71,1.13-2.51,1.4-.81.27-1.47.46-1.99.55-.52.09-1.05.14-1.58.14-1.01,0-1.97-.19-2.88-.55-.92-.37-1.62-.88-2.12-1.54-.5-.66-.79-1.39-.88-2.17-.09-.79-.12-1.43-.08-1.93.04-.5.13-1.04.28-1.6.28-1.08.66-1.99,1.14-2.74.48-.75.89-1.32,1.24-1.72.35-.4.86-.87,1.52-1.4.66-.54,1.53-.99,2.58-1.36,1.06-.37,2.14-.55,3.24-.55,1.05,0,2,.17,2.88.52.87.35,1.51.8,1.91,1.33.4.54.68,1.01.83,1.42.15.41.27.97.36,1.7.09.73-.02,1.66-.31,2.79-.28,1.08-.73,2.11-1.35,3.11-.62.99-1.38,1.86-2.29,2.6Zm-6.47-1.36c.13.08.3.13.52.17.22.04.44.06.66.06.79,0,1.57-.24,2.33-.71.76-.47,1.34-1.05,1.73-1.73.39-.68.67-1.37.86-2.07.26-1,.31-1.88.15-2.62-.16-.75-.6-1.29-1.3-1.63-.46-.19-.91-.28-1.33-.28-.48,0-1,.1-1.57.31-.56.25-1.05.56-1.48.94-.43.38-.8.84-1.12,1.39-.32.55-.57,1.18-.76,1.9-.25.96-.28,1.83-.09,2.61.19.78.66,1.33,1.4,1.67Z" style="fill:#fff;"/></g><g><path d="m110.59,27.8h3.87v13.09c0,1.13.1,1.92.3,2.39.2.47.52.84.98,1.12.45.28,1,.42,1.64.42.68,0,1.26-.16,1.75-.47.49-.31.83-.71,1.02-1.19.19-.48.28-1.4.28-2.76v-12.61h3.87v12.06c0,2.04-.11,3.45-.34,4.24-.23.79-.67,1.55-1.31,2.28-.65.73-1.39,1.28-2.24,1.63-.84.35-1.83.53-2.95.53-1.47,0-2.74-.34-3.83-1.01-1.09-.67-1.86-1.52-2.33-2.53-.47-1.01-.7-2.73-.7-5.14v-12.06Z" style="fill:#fff;"/><path d="m128.27,27.8h3.7l8.66,13.32v-13.32h3.85v20.24h-3.71l-8.65-13.28v13.28h-3.85v-20.24Z" style="fill:#fff;"/><path d="m148.31,27.8h3.82v20.24h-3.82v-20.24Z" style="fill:#fff;"/><path d="m154.43,27.8h3.96l5.09,14.38,5.17-14.38h3.96l-7.29,20.24h-3.72l-7.17-20.24Z" style="fill:#fff;"/><path d="m175.2,27.8h11.05v3.77h-7.22v3.66h7.22v3.7h-7.22v5.32h7.22v3.78h-11.05v-20.24Z" style="fill:#fff;"/><path d="m189.59,27.8h4.08c2.24,0,3.83.2,4.78.6.95.4,1.71,1.06,2.29,1.99.58.93.87,2.02.87,3.29,0,1.33-.32,2.44-.96,3.34-.64.9-1.6,1.57-2.88,2.03l4.79,9h-4.21l-4.55-8.57h-.35v8.57h-3.85v-20.24Zm3.85,7.91h1.21c1.23,0,2.07-.16,2.53-.48.46-.32.69-.86.69-1.6,0-.44-.11-.83-.34-1.15-.23-.33-.54-.56-.92-.7-.38-.14-1.09-.21-2.11-.21h-1.06v4.16Z" style="fill:#fff;"/><path d="m215.78,30.55l-2.85,2.52c-1-1.39-2.02-2.09-3.06-2.09-.51,0-.92.14-1.24.41-.32.27-.48.58-.48.92s.12.66.35.96c.31.4,1.25,1.27,2.82,2.6,1.47,1.23,2.36,2,2.67,2.32.78.79,1.33,1.54,1.66,2.26.33.72.49,1.5.49,2.36,0,1.66-.58,3.03-1.72,4.11-1.15,1.08-2.64,1.62-4.49,1.62-1.44,0-2.7-.35-3.77-1.06-1.07-.71-1.99-1.82-2.75-3.33l3.24-1.95c.97,1.79,2.09,2.68,3.36,2.68.66,0,1.22-.19,1.67-.58.45-.39.67-.83.67-1.33,0-.46-.17-.92-.51-1.38-.34-.46-1.09-1.16-2.25-2.1-2.21-1.8-3.63-3.18-4.27-4.16-.64-.98-.96-1.95-.96-2.92,0-1.4.53-2.61,1.6-3.61,1.07-1,2.39-1.51,3.96-1.51,1.01,0,1.97.23,2.89.7.91.47,1.9,1.32,2.97,2.56Z" style="fill:#fff;"/><path d="m219.03,27.8h3.83v20.24h-3.83v-20.24Z" style="fill:#fff;"/><path d="m226.69,27.8h4.56c2.94,0,5.13.37,6.56,1.09s2.61,1.92,3.53,3.56c.93,1.64,1.39,3.56,1.39,5.75,0,1.56-.26,2.99-.78,4.3-.52,1.31-1.23,2.39-2.15,3.25-.91.86-1.9,1.46-2.96,1.79-1.06.33-2.9.5-5.53.5h-4.63v-20.24Zm3.83,3.71v12.77h1.79c1.76,0,3.04-.2,3.83-.61.79-.4,1.44-1.08,1.95-2.04.5-.96.76-2.13.76-3.53,0-2.15-.6-3.82-1.8-5-1.08-1.06-2.82-1.6-5.21-1.6h-1.31Z" style="fill:#fff;"/><path d="m252.07,27.8h3.91l7.78,20.24h-4l-1.58-4.17h-8.26l-1.65,4.17h-4l7.8-20.24Zm1.98,5.37l-2.72,6.95h5.41l-2.7-6.95Z" style="fill:#fff;"/><path d="m266.25,27.8h4.56c2.94,0,5.13.37,6.55,1.09,1.43.73,2.61,1.92,3.53,3.56.93,1.64,1.39,3.56,1.39,5.75,0,1.56-.26,2.99-.78,4.3-.52,1.31-1.23,2.39-2.15,3.25-.91.86-1.9,1.46-2.96,1.79-1.06.33-2.9.5-5.52.5h-4.63v-20.24Zm3.82,3.71v12.77h1.79c1.76,0,3.04-.2,3.83-.61.79-.4,1.44-1.08,1.95-2.04.5-.96.76-2.13.76-3.53,0-2.15-.6-3.82-1.8-5-1.08-1.06-2.82-1.6-5.21-1.6h-1.31Z" style="fill:#fff;"/><path d="m292.84,27.8h4.56c2.94,0,5.13.37,6.56,1.09,1.43.73,2.61,1.92,3.53,3.56.93,1.64,1.39,3.56,1.39,5.75,0,1.56-.26,2.99-.78,4.3-.52,1.31-1.23,2.39-2.14,3.25-.91.86-1.9,1.46-2.96,1.79-1.06.33-2.91.5-5.53.5h-4.63v-20.24Zm3.83,3.71v12.77h1.79c1.76,0,3.04-.2,3.83-.61.79-.4,1.44-1.08,1.95-2.04.5-.96.76-2.13.76-3.53,0-2.15-.6-3.82-1.8-5-1.08-1.06-2.82-1.6-5.21-1.6h-1.31Z" style="fill:#fff;"/><path d="m312.06,27.8h11.05v3.77h-7.22v3.66h7.22v3.7h-7.22v5.32h7.22v3.78h-11.05v-20.24Z" style="fill:#fff;"/><path d="m331.57,27.8h11.18v3.8h-3.69v16.44h-3.91v-16.44h-3.59v-3.8Z" style="fill:#fff;"/><path d="m351.07,27.8h3.91l7.78,20.24h-4l-1.58-4.17h-8.26l-1.65,4.17h-4l7.8-20.24Zm1.98,5.37l-2.71,6.95h5.41l-2.7-6.95Z" style="fill:#fff;"/><path d="m365.49,27.8h4.08c2.24,0,3.83.2,4.78.6.95.4,1.71,1.06,2.29,1.99.58.93.87,2.02.87,3.29,0,1.33-.32,2.44-.96,3.34-.64.9-1.6,1.57-2.88,2.03l4.79,9h-4.21l-4.55-8.57h-.35v8.57h-3.85v-20.24Zm3.85,7.91h1.21c1.23,0,2.07-.16,2.53-.48.46-.32.69-.86.69-1.6,0-.44-.11-.83-.34-1.15-.23-.33-.54-.56-.92-.7-.38-.14-1.09-.21-2.11-.21h-1.05v4.16Z" style="fill:#fff;"/><path d="m387.24,27.8h3.91l7.78,20.24h-4l-1.58-4.17h-8.26l-1.65,4.17h-4l7.8-20.24Zm1.98,5.37l-2.71,6.95h5.41l-2.7-6.95Z" style="fill:#fff;"/><path d="m401.38,27.8h4.09c2.21,0,3.8.2,4.78.61.98.41,1.75,1.07,2.31,1.98.56.91.85,2.01.85,3.28,0,1.41-.37,2.59-1.11,3.52-.74.94-1.74,1.59-3,1.95-.74.21-2.09.32-4.06.32v8.57h-3.85v-20.24Zm3.85,7.91h1.22c.96,0,1.63-.07,2.01-.21.38-.14.67-.37.89-.68.22-.32.32-.7.32-1.15,0-.78-.3-1.35-.91-1.71-.44-.27-1.26-.4-2.45-.4h-1.09v4.16Z" style="fill:#fff;"/><path d="m422.84,27.8h3.91l7.78,20.24h-4l-1.58-4.17h-8.26l-1.65,4.17h-4l7.8-20.24Zm1.98,5.37l-2.71,6.95h5.41l-2.7-6.95Z" style="fill:#fff;"/><path d="m455.6,31.35l-2.69,2.57c-1.83-1.94-3.89-2.91-6.19-2.91-1.93,0-3.56.66-4.89,1.98-1.33,1.32-1.99,2.95-1.99,4.89,0,1.35.29,2.55.88,3.59.59,1.05,1.42,1.87,2.49,2.46,1.07.6,2.26.9,3.57.9,1.12,0,2.14-.21,3.06-.63.92-.42,1.94-1.18,3.05-2.28l2.61,2.72c-1.49,1.46-2.91,2.47-4.24,3.03-1.33.57-2.85.85-4.55.85-3.15,0-5.72-1-7.72-2.99-2-1.99-3.01-4.55-3.01-7.67,0-2.02.46-3.81,1.37-5.38.91-1.57,2.22-2.83,3.92-3.78,1.7-.95,3.53-1.43,5.5-1.43,1.67,0,3.28.35,4.82,1.06,1.55.71,2.88,1.71,4,3.01Z" style="fill:#fff;"/><path d="m464.64,27.8h3.91l7.78,20.24h-4l-1.58-4.17h-8.26l-1.65,4.17h-4l7.8-20.24Zm1.98,5.37l-2.71,6.95h5.41l-2.7-6.95Zm.65-12.33h4.44l-5.04,5.39h-2.7l3.29-5.39Z" style="fill:#fff;"/></g><g><path d="m.02,0v24.87h16.36v-8.11h12.36v14.06h32.78v-14.06h12.17v7.84h16.65V0S.02,0,.02,0Zm86.78,20.88h-8.51v-8.65h-20.28v14.73h-25.75v-14.67H12.25v8.64H3.33V3.58h83.47v17.3Z" style="fill:#fff;"/><path d="m74.03,27.64v76.3s-.68,11.76-13.52,12.91v-4.39h-15.39v.09-.09h-15.32v4.39c-12.84-1.15-13.52-12.91-13.52-12.91V27.64H0v84.82l18.92,18.79h52.47l18.96-18.79V27.64h-16.32Zm12.55,82.75l-16.76,16.67H20.7L3.94,110.39V31.63h8.7v73.44s1.26,15.5,18.97,15.86c1.53.09,2.3.09,2.3.09v-4.82h22.71v4.82s.77,0,2.3-.09c17.71-.36,18.97-15.86,18.97-15.86V31.63h8.7v78.76Z" style="fill:#fff;"/><path d="m52.05,44.81h-13.79l-6.73,17.5h12.47l1.15.75h0s0,0,0,0h0s0,0,0,0l1.15-.75h12.47l-6.73-17.5Zm-6.89,16.74h-12.58l6.17-16.05h12.8l6.17,16.05h-12.57Z" style="fill:#fff;"/><path d="m52.64,55.56c-.91-.3-.44-.61-.44-.61,0,0,1.05-.03,1.11-.85,0-1.05-.67-1.21-.67-1.21h-5.88s1.62,1.55,1.79,2.06c.17.51-.3.54-.3.54,0,0-1.76.41-1.59,2.37.2,2.13,1.99,2.4,1.99,2.4h3.62c1.42,0,1.89-1.79,1.89-2.47s-.61-1.93-1.52-2.23Zm-.57,4.12h-3.14s-1.62-.27-1.62-1.89,2.06-1.83,2.06-2.57-.84-1.55-.84-1.55h4.05c.27.78-.2.78-.2.78,0,0-.95-.03-.91.88.03.91,1.89.84,1.96,2.5.07,1.66-1.35,1.86-1.35,1.86Z" style="fill:#fff;"/><g><path d="m48.38,39.29c-.06,0-.12,0-.19,0v-.82h-.27v-.34h-5.51v.34h-.27v.82c-.06,0-.13,0-.19,0-.87,0-1.1.54-1.1.86v.81c0,.92.61,1.06.88,1.07v1.75h6.86v-1.75c.15,0,.35-.05.52-.19.24-.18.35-.48.35-.89v-.81c0-.32-.23-.86-1.1-.86Zm.91,1.67c0,1.05-.88.88-.88.88v1.76h-6.49v-1.76s-.88.17-.88-.88v-.81c0-.25.2-.81,1.28-.64v-.84h.27v-.34h5.14v.34h.27v.84c1.08-.17,1.28.39,1.28.64v.81Z" style="fill:#fff;"/><path d="m48.01,39.5v-.84h-.27v-.34h-5.14v.34h-.27v.84c-1.08-.17-1.28.39-1.28.64v.81c0,1.05.88.88.88.88v1.76h6.49v-1.76s.88.17.88-.88v-.81c0-.25-.2-.81-1.28-.64Zm1.1,1.45c0,.28-.07.48-.21.6-.11.09-.25.11-.35.11-.05,0-.09,0-.1,0l-.22-.04v1.79h-6.12v-1.79s-.22.04-.22.04c0,0-.04,0-.1,0-.37,0-.56-.24-.56-.7v-.81c0-.08.03-.49.72-.49.1,0,.22.01.34.03l.21.03v-.88h.27v-.34h4.76v.34h.27v.88l.21-.03c.12-.02.24-.03.34-.03.69,0,.73.41.73.49v.81Z" style="fill:#fff;"/></g><g><path d="m26.6,59.56l4.45.21,2.1-3.63-6.55,3.42Zm4.34.02l-3.65-.17,5.37-2.81-1.72,2.98Z" style="fill:#fff;"/><path d="m27.29,59.41l3.65.17,1.72-2.98-5.37,2.81Zm3.55-.02l-2.85-.13,4.2-2.19-1.35,2.32Z" style="fill:#fff;"/></g><g><path d="m30.61,66.08l-.64,4.82,4.26-4.82h-3.62Zm.16.19h3.04l-3.58,4.06.54-4.06Z" style="fill:#fff;"/><path d="m30.77,66.27l-.54,4.06,3.58-4.06h-3.04Zm.16.19h2.47l-2.91,3.29.44-3.29Z" style="fill:#fff;"/></g><g><path d="m55.09,68.21v-.57h-19.58l-.03.3h-.22v1.99h.24v.24h19.56v-.24h.24v-1.72h-.2Zm.02,1.54h-.24v.24h-19.19v-.24h-.24v-1.62h.21l.03-.3h19.23v.57h.2v1.35Z" style="fill:#fff;"/><path d="m54.9,67.82h-19.23l-.03.3h-.21v1.62h.24v.24h19.19v-.24h.24v-1.35h-.2v-.57Zm.02.76v.98h-.24v.24h-18.82v-.24h-.24v-1.25h.19l.03-.3h18.87v.57h.2Z" style="fill:#fff;"/></g><path d="m40.58,50.97s-.03-1.02-.03-1.56c0-.57.36-1.67,1.7-1.71.7-.02.97.31,1.19.57.19.23.35.42.79.45.92.05,1.12-.52,1.13-.52l.42.13s-.3.91-1.58.83c-.64-.04-.9-.35-1.11-.61-.2-.25-.35-.42-.83-.41-1.26.04-1.27,1.21-1.27,1.26,0,.53.03,1.54.03,1.55h-.45Z" style="fill:#fff;"/><path d="m36.44,57.49h-.45c.01-.85.24-1.47.67-1.86.49-.44,1.07-.4,1.1-.39h2.65c.69-.01,1.2-.21,1.54-.59.53-.61.44-1.49.44-1.5l.44-.05s.12,1.09-.54,1.84c-.42.48-1.05.73-1.87.74h-2.67s-.44-.03-.79.29c-.33.3-.5.81-.51,1.52Z" style="fill:#fff;"/><path d="m38.01,59.03c-.16.28-.31.56-.47.85-.14.25.25.47.38.22.16-.28.31-.56.47-.85.14-.25-.24-.47-.38-.22h0Z" style="fill:#fff;"/><path d="m44.92,46.72c-.17.26-.34.52-.51.78-.16.24.23.46.38.22.17-.26.34-.52.51-.78.16-.24-.23-.46-.38-.22h0Z" style="fill:#fff;"/><path d="m42.82,49.77c-1,1.47-2.01,2.95-3.01,4.43-.2.3.28.58.48.28,1-1.48,2.01-2.95,3.01-4.43.2-.3-.28-.58-.48-.28h0Z" style="fill:#fff;"/><path d="m38.3,56.47c-.77,1.08-1.53,2.16-2.3,3.24-.17.24.22.46.38.23.77-1.08,1.53-2.16,2.3-3.25.17-.23-.22-.46-.38-.22h0Z" style="fill:#fff;"/><g><path d="m59.27,45.54c-.28-.81-1.15-1.37-2.1-1.32-.91.05-3.57,1.51-3.68,1.58l-.15.08,1.16,2.61,1.09-.56c.2.22.68.63,1.56.63.18,0,.38-.02.57-.05.57-.1,1.02-.41,1.31-.9.39-.66.41-1.54.23-2.06Zm-1.57,2.79c-1.51.27-2.05-.63-2.05-.63l-1.06.54-1.01-2.28s2.72-1.51,3.6-1.55c.88-.05,1.67.47,1.91,1.2.25.72.11,2.45-1.39,2.73Z" style="fill:#fff;"/><path d="m57.18,44.4c-.88.04-3.6,1.55-3.6,1.55l1.01,2.28,1.06-.54s.54.9,2.05.63c1.51-.27,1.64-2.01,1.39-2.73-.25-.72-1.03-1.24-1.91-1.2Zm1.54,3.01c-.23.4-.59.64-1.05.73-.18.03-.35.05-.51.05-.97,0-1.34-.57-1.35-.59l-.09-.15-1.04.53-.86-1.94c.85-.46,2.73-1.42,3.37-1.45.79-.04,1.5.41,1.73,1.07.15.43.13,1.2-.2,1.76Z" style="fill:#fff;"/></g><polygon points="45.15 65 43.5 63.74 31.03 63.74 31.03 63.09 43.72 63.09 45.15 64.18 46.59 63.09 59.27 63.09 59.27 63.74 46.81 63.74 45.15 65" style="fill:#fff;"/><polygon points="45.15 66.28 43.5 65.03 31.03 65.03 31.03 64.38 43.72 64.38 45.15 65.47 46.59 64.38 59.27 64.38 59.27 65.03 46.81 65.03 45.15 66.28" style="fill:#fff;"/><g><polygon points="39.42 66.48 40.59 66.48 40.59 67.56 39.42 66.48" style="fill:#fff;"/><path d="m40.61,67.61l-.03-.03-1.21-1.11h1.24v1.14Zm-1.14-1.1l1.11,1.02v-1.02h-1.11Z" style="fill:#fff;"/></g><g><polygon points="43.03 66.48 44.2 66.48 44.2 67.56 43.03 66.48" style="fill:#fff;"/><path d="m44.22,67.61l-1.24-1.14h1.24v1.14Zm-1.14-1.1l1.1,1.02v-1.02h-1.1Z" style="fill:#fff;"/></g><g><polygon points="46.18 66.48 47.35 66.48 47.35 67.56 46.18 66.48" style="fill:#fff;"/><path d="m47.37,67.61l-.03-.03-1.21-1.11h1.24v1.14Zm-1.14-1.1l1.1,1.02v-1.02h-1.1Z" style="fill:#fff;"/></g><g><polygon points="49.67 66.48 50.85 66.48 50.85 67.56 49.67 66.48" style="fill:#fff;"/><path d="m50.87,67.61l-.03-.03-1.21-1.11h1.24v1.14Zm-1.14-1.1l1.11,1.02v-1.02h-1.11Z" style="fill:#fff;"/></g><path d="m41.55,102.6c.36.1,7.5,0,7.5,0,0,0,.02-1.84-.59-2.58l-7.23,1.69s-.03.79.32.89Z" style="fill:none;"/><path d="m40.24,82.45c-1.24.03-.68,2.37-.55,2.77.12.4.47,1.18,1.08,1.02.61-.15.57-.97.57-.97,0,0,.14-2.86-1.1-2.82Z" style="fill:none;"/><path d="m29.52,76.25s.81-.18,1.2-.05c.39.13,1.62.66,1.65.88.04.22,0,1.74,0,1.74h-.78s-.61-.69-1.44-.54v1.45s1.71-.07,2.5.18c.79.25,1.23,1.94,1.71,2.23.47.29,1.42.98,1.45,1.51.03.52-.52,1.3-.29,1.6.24.3,1.45.19,1.55,1.2.42,2.52-.32,2.69-.24,3.31.08.62,1.3.79,1.39,1.71.08.91.03,4.04.03,4.04l3.01.02s1.5-.03,1.5-.41v-.64s-2.59.32-3.68-2.14c-.22-.59-.36-1.45-.36-1.45,0,0-.29-2.69,2.23-3.47l-.05-.74s-1.67.34-1.86-2.06c-.19-2.4.2-2.89,1.42-3.07,1.22-.19,2.08,1,2.3,2.01.22,1.02.37,2.75-.69,3.01,0,.25.08.59.08.59,0,0,2.82-.3,3.73,2.23.91,2.53-.66,4.48-1.92,4.87-.03.22-.03.52-.03.52l1.47.02,1-.61,6.65-8.25,5.1,5.07,5.68-7.51,2.57,3.11v-11.93H23.95v6.79s3.33-1.64,5.58-1.67v-3.55Z" style="fill:none;"/><polygon points="56.88 90.64 56.93 90.14 53.08 86.43 50.35 89.88 48.19 94.17 51.84 91.35 52.72 94.24 55.6 90.57 56.88 90.64" style="fill:none;"/><polygon points="66.38 36.36 24.04 36.36 24.04 71.69 66.42 71.69 66.38 36.36" style="fill:none;"/><path d="m46.57,95.04l-5.66,1.23s-1.42.29-1.1,1.42c.32,1.13,1.59.69,1.59.69l5.83-1.27s1.08-.1.83-1.32c-.14-1.06-1.49-.76-1.49-.76Z" style="fill:none;"/><polygon points="63.88 84.1 61.24 87.55 59.09 92.01 62.79 89.06 63.67 92.05 66.43 88.63 66.41 87.03 63.88 84.1" style="fill:none;"/><path d="m45.24,33.79h-24.11v65.56s.93,8.11,11.67,10.14l12.44.03,12.44-.03c10.75-2.03,11.49-10.14,11.49-10.14V33.79h-23.92Zm-21.2,2.57h42.34l.05,35.33H24.04v-35.33Zm-.09,38.32h42.48v11.93l-2.57-3.11-5.68,7.51-5.1-5.07-6.65,8.25-1,.61-1.47-.02s0-.3.03-.52c1.27-.39,2.84-2.33,1.92-4.87-.91-2.53-3.73-2.23-3.73-2.23,0,0-.08-.34-.08-.59,1.06-.25.91-1.99.69-3.01-.22-1.01-1.08-2.2-2.3-2.01-1.22.19-1.61.67-1.42,3.07.19,2.4,1.86,2.06,1.86,2.06l.05.74c-2.52.78-2.23,3.47-2.23,3.47,0,0,.13.86.36,1.45,1.1,2.47,3.68,2.14,3.68,2.14v.64c0,.37-1.5.41-1.5.41l-3.01-.02s.05-3.13-.03-4.04c-.08-.91-1.3-1.08-1.39-1.71-.09-.62.66-.79.24-3.31-.1-1.01-1.32-.89-1.55-1.2-.24-.3.32-1.08.29-1.6-.03-.53-.98-1.22-1.45-1.51-.47-.28-.91-1.98-1.71-2.23-.79-.25-2.5-.18-2.5-.18v-1.45c.83-.15,1.44.54,1.44.54h.78s.04-1.52,0-1.74c-.03-.22-1.26-.74-1.65-.88-.39-.14-1.2.05-1.2.05v3.55c-2.25.04-5.58,1.67-5.58,1.67v-6.79Zm26.53,26.66s.41,1.72-.2,2.84h-9.66s-.44-1.49-2.57-2.87c0-.78-.1-1.28-.1-1.28l-.41-.03s-.47.51-.58.91c-.1.41-3.55-.07-3.62,1.86-.13.78.88,1.32.88,1.32v.41h-1.99s-.13-1.39-1.39-1.39-1.96-.03-1.96-.03c0,0-.68-.14-.68-1.76.07-1.18.98-1.32.98-1.32l5.37.03s3.58-.07,3.62-3.92h1.42s-.64.88-.2,2.64c-.67.51-1.01.81-.74,1.82.27,1.01.71,1.39,1.59,1.52.24.47.54,1.49.54,1.49h9.06s.54-.17-.17-3.75c.64-.54.81-.88.71-1.96-.1-1.08-1.52-1.38-1.52-1.38v-.34h4.7s-2.84,3.14-3.04,3.48c-.2.34-.03,1.72-.03,1.72Zm-9.71-15.11c-.61.16-.96-.62-1.08-1.02-.12-.4-.69-2.74.55-2.77,1.24-.03,1.1,2.82,1.1,2.82,0,0,.04.81-.57.97Zm4.57,4.02s.52,3.04-1.81,3.41c0,0-3.5.73-3.7-2.14,3.5-.14,5.51-1.27,5.51-1.27Zm1.89,6.86l-5.83,1.27s-1.27.44-1.59-.69c-.32-1.13,1.1-1.42,1.1-1.42l5.66-1.23s1.35-.3,1.49.76c.25,1.21-.83,1.32-.83,1.32Zm1.23,2.89c.61.74.59,2.58.59,2.58,0,0-7.15.1-7.5,0-.36-.1-.32-.89-.32-.89l7.23-1.69Zm4.25-5.77l-.88-2.89-3.65,2.83,2.17-4.3,2.73-3.45,3.85,3.71-.05.5-1.28-.06-2.88,3.66Zm-28.77-12.16s3.97-1.28,5.09-1.39c1.12-.1,2.35-.31,3.28.18.93.49,1.03,1.67,1.28,2.01.25.34,1.07.47,1.27.84.21.37.09.64.05.91-.03.27-.53.39-.48,1.18.05.79.41.47,1.22.56.81.09,1.03,1.93.68,2.4-.35.47-.51.68-.52,1.15-.02.47,1.86,2.2,1.86,2.2l-.02,3.4-13.7.02v-13.47Zm34.08,24.53c-2.5.02-25.88,0-25.88,0,0,0-7.86-3.51-8.2-8.03v-2.47h13.7s.1,2.92-2.84,2.92h-5.15s-1.93-.05-1.93,2.33,1.28,2.33,1.28,2.33h2.05s.76.24.67,1.2l29.45.02s-.66,1.67-3.16,1.69Zm8.36-7.16h-13.99s-.34-.34.17-.92c.5-.57,1.82-2.4,1.82-2.4l11.99-.03v3.35Zm-2.72-7.4l-.88-2.99-3.7,2.95,2.15-4.46,2.64-3.45,2.53,2.93.02,1.6-2.76,3.42Z" style="fill:#fff;"/></g></g></svg>