<?xml version="1.0" encoding="UTF-8"?><svg id="Capa_2" xmlns="http://www.w3.org/2000/svg" viewBox="0 0 356.29 254.67"><defs><style>.cls-1{fill:#fff;}.cls-2{fill:none;}</style></defs><g id="Capa_1-2"><g><path class="cls-1" d="M111.43,0V36.67h24.12v-11.95h18.23v20.73h48.33V24.71h17.94v11.56h24.55V0S111.43,0,111.43,0Zm127.94,30.79h-12.55v-12.75h-29.89v21.72h-37.96V18.14h-29.49v12.74h-13.15V5.28h123.05V30.79Z"/><path class="cls-1" d="M220.54,40.75v112.49s-1,17.34-19.93,19.03v-6.48h-22.69v0h-22.59v6.48c-18.93-1.7-19.93-19.03-19.93-19.03V40.75h-24v125.05l27.89,27.7h77.36l27.95-27.7V40.75h-24.06Zm18.5,121.99l-24.71,24.58h-72.4l-24.71-24.58V46.63h12.82v108.28s1.86,22.85,27.97,23.39c2.26,.13,3.39,.13,3.39,.13v-7.11h33.48v7.11s1.13,0,3.39-.13c26.11-.54,27.96-23.39,27.96-23.39V46.63h12.82v116.12Z"/><path class="cls-1" d="M188.14,66.06h-20.33l-9.92,25.81h18.38l1.69,1.11h0s0,0,0,0h0s0,0,0,0l1.69-1.11h18.38l-9.92-25.81Zm-10.16,24.68h-18.54l9.1-23.66h18.88l9.1,23.66h-18.54Z"/><path class="cls-1" d="M189,81.91c-1.34-.45-.65-.9-.65-.9,0,0,1.54-.05,1.64-1.25,0-1.54-1-1.79-1-1.79h-8.67s2.39,2.29,2.64,3.04c.25,.75-.45,.8-.45,.8,0,0-2.59,.6-2.34,3.49,.3,3.14,2.94,3.54,2.94,3.54h5.33c2.09,0,2.79-2.64,2.79-3.64s-.9-2.84-2.24-3.29Zm-.85,6.08h-4.63s-2.39-.4-2.39-2.79,3.04-2.69,3.04-3.79-1.24-2.29-1.24-2.29h5.98c.4,1.14-.3,1.14-.3,1.14,0,0-1.39-.05-1.34,1.3,.05,1.34,2.79,1.25,2.89,3.68,.1,2.44-2,2.74-2,2.74Z"/><g><path class="cls-1" d="M182.73,57.92c-.09,0-.18,0-.28,.01v-1.21h-.4v-.5h-8.12v.5h-.4v1.21c-.1,0-.19-.01-.27-.01-1.28,0-1.62,.8-1.62,1.27v1.2c0,1.36,.91,1.56,1.3,1.58v2.58h10.11v-2.58c.22-.01,.52-.07,.77-.27,.35-.27,.52-.71,.52-1.31v-1.2c0-.47-.34-1.27-1.62-1.27Zm1.34,2.46c0,1.54-1.29,1.29-1.29,1.29v2.59h-9.56v-2.59s-1.29,.25-1.29-1.29v-1.2c0-.38,.3-1.2,1.89-.95v-1.25h.4v-.5h7.57v.5h.4v1.25c1.59-.25,1.89,.57,1.89,.95v1.2Z"/><path class="cls-1" d="M182.18,58.24v-1.25h-.4v-.5h-7.57v.5h-.4v1.25c-1.59-.25-1.89,.57-1.89,.95v1.2c0,1.54,1.29,1.29,1.29,1.29v2.59h9.56v-2.59s1.29,.25,1.29-1.29v-1.2c0-.38-.3-1.2-1.89-.95Zm1.62,2.14c0,.42-.1,.71-.31,.88-.17,.13-.37,.16-.52,.16-.08,0-.13,0-.14-.01l-.33-.06v2.65h-9.02v-2.64s-.32,.06-.32,.06c0,0-.06,.01-.14,.01-.55,0-.83-.35-.83-1.04v-1.2c0-.12,.05-.72,1.07-.72,.15,0,.32,.02,.51,.04l.31,.05v-1.29h.4v-.5h7.02v.5h.4v1.29l.32-.05c.18-.03,.35-.04,.51-.04,1.02,0,1.07,.6,1.07,.72v1.2Z"/></g><g><path class="cls-1" d="M150.62,87.81l6.56,.31,3.1-5.35-9.65,5.04Zm6.4,.03l-5.38-.25,7.92-4.14-2.54,4.39Z"/><path class="cls-1" d="M151.64,87.59l5.38,.25,2.54-4.39-7.92,4.14Zm5.23-.03l-4.2-.2,6.19-3.23-1.99,3.43Z"/></g><g><path class="cls-1" d="M156.53,97.43l-.95,7.11,6.28-7.11h-5.33Zm.24,.27h4.49l-5.28,5.98,.8-5.98Z"/><path class="cls-1" d="M156.77,97.7l-.8,5.98,5.28-5.98h-4.49Zm.24,.27h3.64l-4.29,4.85,.65-4.85Z"/></g><g><path class="cls-1" d="M192.62,100.56v-.85h-28.86l-.05,.45h-.33v2.94h.35v.35h28.84v-.35h.35v-2.54h-.3Zm.03,2.27h-.35v.35h-28.29v-.35h-.35v-2.39h.3l.05-.45h28.35v.85h.3v1.99Z"/><path class="cls-1" d="M192.34,99.99h-28.35l-.05,.45h-.3v2.39h.35v.35h28.29v-.35h.35v-1.99h-.3v-.85Zm.03,1.12v1.45h-.35v.35h-27.75v-.35h-.35v-1.84h.27l.05-.45h27.83v.85h.3Z"/></g><path class="cls-1" d="M171.24,75.14s-.05-1.51-.05-2.3c0-.85,.53-2.46,2.51-2.52,1.03-.03,1.43,.45,1.75,.84,.28,.35,.51,.62,1.17,.66,1.36,.08,1.66-.76,1.66-.77l.62,.2c-.02,.06-.44,1.34-2.32,1.23-.94-.06-1.32-.52-1.63-.89-.3-.36-.51-.63-1.23-.6-1.85,.05-1.88,1.79-1.88,1.86,0,.79,.05,2.27,.05,2.28l-.66,.02Z"/><path class="cls-1" d="M165.12,84.75h-.66c.02-1.25,.35-2.17,.98-2.74,.73-.65,1.58-.58,1.62-.58h3.9c1.01-.02,1.78-.31,2.27-.87,.79-.9,.64-2.19,.64-2.2l.65-.08c0,.06,.18,1.6-.8,2.71-.62,.71-1.55,1.08-2.76,1.09h-3.94c-.05,0-.65-.04-1.16,.42-.49,.44-.74,1.2-.76,2.24Z"/><path class="cls-1" d="M167.45,87.02c-.23,.42-.46,.83-.69,1.25-.21,.37,.36,.7,.57,.33,.23-.42,.46-.83,.69-1.25,.21-.37-.36-.7-.57-.33h0Z"/><path class="cls-1" d="M177.63,68.87c-.25,.38-.51,.76-.76,1.15-.23,.35,.33,.68,.57,.33,.25-.38,.5-.76,.76-1.15,.23-.35-.33-.68-.57-.33h0Z"/><path class="cls-1" d="M174.53,73.38c-1.48,2.17-2.96,4.35-4.44,6.52-.3,.44,.41,.85,.71,.42,1.48-2.18,2.96-4.35,4.44-6.53,.3-.44-.41-.85-.71-.41h0Z"/><path class="cls-1" d="M167.87,83.26c-1.13,1.59-2.26,3.19-3.39,4.78-.25,.35,.32,.67,.57,.33,1.13-1.59,2.26-3.19,3.39-4.78,.25-.35-.32-.67-.57-.33h0Z"/><g><path class="cls-1" d="M198.78,67.14c-.41-1.2-1.69-2.02-3.09-1.95-1.34,.07-5.26,2.23-5.43,2.33l-.22,.12,1.71,3.85,1.61-.83c.29,.33,1,.93,2.31,.93,.27,0,.55-.03,.85-.08,.84-.15,1.51-.61,1.93-1.33,.57-.98,.6-2.27,.33-3.04Zm-2.31,4.11c-2.23,.4-3.03-.93-3.03-.93l-1.56,.8-1.49-3.35s4.02-2.23,5.31-2.29c1.3-.07,2.46,.7,2.82,1.76,.37,1.06,.17,3.62-2.06,4.02Z"/><path class="cls-1" d="M195.7,65.46c-1.29,.07-5.31,2.29-5.31,2.29l1.49,3.35,1.56-.8s.8,1.33,3.03,.93c2.22-.4,2.42-2.96,2.06-4.02-.37-1.06-1.53-1.83-2.82-1.76Zm2.27,4.44c-.34,.59-.87,.95-1.55,1.07-.26,.05-.51,.07-.75,.07-1.44,0-1.97-.84-1.99-.87l-.13-.22-1.53,.78-1.27-2.86c1.25-.68,4.02-2.09,4.97-2.14,1.16-.06,2.22,.61,2.55,1.58,.22,.64,.19,1.77-.29,2.59Z"/></g><polygon class="cls-1" points="177.96 95.83 175.54 93.98 157.15 93.98 157.15 93.02 175.86 93.02 177.96 94.62 180.09 93.02 198.79 93.02 198.79 93.98 180.41 93.98 177.96 95.83"/><polygon class="cls-1" points="177.96 97.72 175.54 95.87 157.15 95.87 157.15 94.91 175.86 94.91 177.96 96.52 180.09 94.91 198.79 94.91 198.79 95.87 180.41 95.87 177.96 97.72"/><g><polygon class="cls-1" points="169.52 98.01 171.25 98.01 171.25 99.61 169.52 98.01"/><path class="cls-1" d="M171.28,99.67l-.05-.04-1.78-1.64h1.83v1.68Zm-1.69-1.63l1.63,1.5v-1.5h-1.63Z"/></g><g><polygon class="cls-1" points="174.84 98.01 176.56 98.01 176.56 99.61 174.84 98.01"/><path class="cls-1" d="M176.59,99.67l-1.82-1.68h1.82v1.68Zm-1.68-1.63l1.63,1.5v-1.5h-1.63Z"/></g><g><polygon class="cls-1" points="179.49 98.01 181.22 98.01 181.22 99.61 179.49 98.01"/><path class="cls-1" d="M181.25,99.67l-.05-.04-1.78-1.64h1.83v1.68Zm-1.69-1.63l1.63,1.5v-1.5h-1.63Z"/></g><g><polygon class="cls-1" points="184.64 98.01 186.37 98.01 186.37 99.61 184.64 98.01"/><path class="cls-1" d="M186.39,99.67l-.05-.04-1.78-1.64h1.83v1.68Zm-1.69-1.63l1.63,1.5v-1.5h-1.63Z"/></g><path class="cls-2" d="M172.66,151.25c.52,.15,11.06,0,11.06,0,0,0,.02-2.71-.87-3.81l-10.66,2.49s-.05,1.17,.47,1.32Z"/><path class="cls-2" d="M170.73,121.56c-1.83,.05-1,3.5-.82,4.08,.18,.59,.69,1.74,1.59,1.51,.9-.23,.85-1.42,.85-1.42,0,0,.21-4.21-1.62-4.16Z"/><path class="cls-2" d="M154.93,112.42s1.2-.27,1.77-.07c.57,.2,2.39,.97,2.44,1.29,.05,.32,0,2.57,0,2.57h-1.14s-.9-1.02-2.12-.8v2.14s2.51-.1,3.69,.27c1.17,.37,1.82,2.87,2.52,3.29,.7,.43,2.09,1.44,2.14,2.22,.05,.77-.77,1.92-.42,2.36,.35,.45,2.14,.28,2.29,1.77,.62,3.71-.47,3.96-.35,4.88,.12,.92,1.92,1.17,2.04,2.52,.12,1.35,.05,5.95,.05,5.95l4.43,.03s2.22-.05,2.22-.6v-.95s-3.81,.48-5.43-3.16c-.33-.87-.52-2.14-.52-2.14,0,0-.42-3.96,3.29-5.11l-.08-1.1s-2.46,.5-2.74-3.04c-.28-3.54,.3-4.26,2.09-4.53,1.79-.27,3.06,1.47,3.39,2.96,.32,1.5,.55,4.06-1.02,4.43,0,.38,.12,.87,.12,.87,0,0,4.16-.45,5.5,3.29,1.35,3.74-.97,6.6-2.84,7.18-.05,.32-.05,.77-.05,.77l2.17,.03,1.47-.9,9.81-12.16,7.53,7.47,8.37-11.06,3.78,4.59v-17.59h-62.62v10.01s4.91-2.41,8.22-2.46v-5.23Z"/><polygon class="cls-2" points="195.26 133.63 195.34 132.89 189.66 127.42 185.64 132.5 182.45 138.84 187.83 134.67 189.12 138.93 193.37 133.53 195.26 133.63"/><polygon class="cls-2" points="209.26 53.6 146.84 53.6 146.84 105.69 209.33 105.69 209.26 53.6"/><path class="cls-2" d="M180.06,140.12l-8.35,1.82s-2.09,.42-1.62,2.09c.47,1.66,2.34,1.02,2.34,1.02l8.59-1.87s1.59-.15,1.22-1.94c-.2-1.57-2.19-1.12-2.19-1.12Z"/><polygon class="cls-2" points="205.59 123.99 201.69 129.07 198.52 135.65 203.97 131.3 205.27 135.71 209.34 130.67 209.31 128.31 205.59 123.99"/><path class="cls-1" d="M178.09,49.82h-35.54v96.65s1.37,11.96,17.21,14.95l18.33,.05,18.33-.05c15.84-2.99,16.94-14.95,16.94-14.95V49.82h-35.27Zm-31.25,3.79h62.42l.07,52.08h-62.49V53.6Zm-.14,56.5h62.62v17.59l-3.78-4.59-8.37,11.06-7.53-7.47-9.81,12.16-1.47,.9-2.17-.03s0-.45,.05-.77c1.87-.57,4.18-3.44,2.84-7.18-1.34-3.73-5.5-3.29-5.5-3.29,0,0-.12-.5-.12-.87,1.57-.38,1.34-2.94,1.02-4.43-.33-1.5-1.6-3.24-3.39-2.96-1.79,.27-2.37,.99-2.09,4.53,.27,3.54,2.74,3.04,2.74,3.04l.08,1.1c-3.71,1.15-3.29,5.11-3.29,5.11,0,0,.2,1.27,.52,2.14,1.62,3.64,5.43,3.16,5.43,3.16v.95c0,.55-2.22,.6-2.22,.6l-4.43-.03s.08-4.61-.05-5.95c-.12-1.34-1.92-1.6-2.04-2.52-.13-.92,.97-1.17,.35-4.88-.15-1.49-1.95-1.32-2.29-1.77-.35-.45,.47-1.59,.42-2.36-.05-.78-1.44-1.8-2.14-2.22-.7-.42-1.34-2.91-2.52-3.29-1.17-.37-3.69-.27-3.69-.27v-2.14c1.22-.22,2.12,.8,2.12,.8h1.14s.05-2.24,0-2.57c-.05-.33-1.86-1.1-2.44-1.29-.58-.2-1.77,.07-1.77,.07v5.23c-3.31,.05-8.22,2.46-8.22,2.46v-10.01Zm39.11,39.31s.6,2.54-.3,4.18h-14.25s-.65-2.19-3.79-4.24c0-1.14-.15-1.89-.15-1.89l-.6-.05s-.7,.75-.85,1.34c-.15,.6-5.23-.1-5.33,2.74-.2,1.14,1.3,1.94,1.3,1.94v.6h-2.94s-.2-2.05-2.04-2.05-2.89-.05-2.89-.05c0,0-1-.2-1-2.59,.1-1.74,1.45-1.94,1.45-1.94l7.92,.05s5.28-.1,5.33-5.78h2.09s-.94,1.29-.3,3.89c-.99,.75-1.49,1.2-1.09,2.69,.4,1.5,1.05,2.04,2.34,2.24,.35,.7,.8,2.19,.8,2.19h13.35s.8-.25-.25-5.53c.95-.8,1.2-1.29,1.04-2.89-.15-1.59-2.24-2.04-2.24-2.04v-.5h6.93s-4.18,4.63-4.48,5.13c-.3,.5-.05,2.54-.05,2.54Zm-14.31-22.27c-.9,.23-1.41-.92-1.59-1.51-.18-.58-1.01-4.03,.82-4.08,1.83-.05,1.62,4.16,1.62,4.16,0,0,.05,1.2-.85,1.42Zm6.74,5.93s.77,4.49-2.67,5.03c0,0-5.16,1.07-5.45-3.16,5.16-.2,8.12-1.87,8.12-1.87Zm2.79,10.12l-8.59,1.87s-1.87,.64-2.34-1.02c-.47-1.67,1.62-2.09,1.62-2.09l8.35-1.82s1.99-.45,2.19,1.12c.37,1.79-1.22,1.94-1.22,1.94Zm1.81,4.26c.9,1.1,.87,3.81,.87,3.81,0,0-10.54,.15-11.06,0-.52-.15-.47-1.32-.47-1.32l10.66-2.49Zm6.27-8.51l-1.29-4.26-5.38,4.17,3.19-6.33,4.02-5.08,5.67,5.46-.07,.74-1.89-.09-4.25,5.4Zm-42.41-17.92s5.86-1.89,7.5-2.04c1.65-.15,3.46-.45,4.83,.27,1.37,.72,1.52,2.47,1.89,2.96,.38,.5,1.57,.7,1.87,1.24,.3,.55,.13,.95,.08,1.34-.05,.4-.78,.57-.7,1.75,.08,1.17,.6,.69,1.79,.82,1.2,.13,1.52,2.84,1,3.54-.52,.7-.75,1-.77,1.69-.03,.7,2.74,3.24,2.74,3.24l-.02,5.01-20.2,.02v-19.85Zm50.24,36.17c-3.69,.03-38.16,0-38.16,0,0,0-11.58-5.18-12.08-11.83v-3.64h20.2s.15,4.31-4.19,4.31h-7.6s-2.84-.08-2.84,3.44,1.89,3.44,1.89,3.44h3.02s1.12,.35,.99,1.77l43.42,.02s-.97,2.47-4.66,2.49Zm12.33-10.56h-20.62s-.5-.5,.25-1.35c.74-.84,2.69-3.54,2.69-3.54l17.68-.05v4.94Zm-4-10.91l-1.3-4.41-5.45,4.35,3.17-6.58,3.9-5.08,3.72,4.32,.03,2.36-4.07,5.04Z"/></g><g><path class="cls-1" d="M0,204.41H3.77v12.75c0,1.1,.1,1.87,.29,2.33,.19,.46,.51,.82,.95,1.09,.44,.27,.98,.41,1.6,.41,.66,0,1.23-.15,1.71-.46,.48-.3,.81-.69,.99-1.16,.18-.47,.27-1.36,.27-2.68v-12.28h3.77v11.75c0,1.98-.11,3.36-.33,4.13-.22,.77-.65,1.51-1.28,2.22-.63,.71-1.36,1.24-2.18,1.59-.82,.34-1.78,.52-2.87,.52-1.43,0-2.67-.33-3.73-.98-1.06-.66-1.82-1.48-2.27-2.47-.46-.99-.68-2.65-.68-5.01v-11.75Z"/><path class="cls-1" d="M17.22,204.41h3.6l8.43,12.97v-12.97h3.75v19.71h-3.61l-8.42-12.93v12.93h-3.75v-19.71Z"/><path class="cls-1" d="M36.75,204.41h3.73v19.71h-3.73v-19.71Z"/><path class="cls-1" d="M42.71,204.41h3.86l4.96,14,5.03-14h3.85l-7.1,19.71h-3.62l-6.98-19.71Z"/><path class="cls-1" d="M62.94,204.41h10.76v3.67h-7.04v3.56h7.04v3.61h-7.04v5.19h7.04v3.69h-10.76v-19.71Z"/><path class="cls-1" d="M76.96,204.41h3.98c2.18,0,3.73,.2,4.65,.58,.92,.39,1.67,1.04,2.23,1.94,.56,.9,.84,1.97,.84,3.2,0,1.29-.31,2.38-.93,3.25-.62,.87-1.56,1.53-2.81,1.98l4.67,8.76h-4.1l-4.43-8.35h-.34v8.35h-3.75v-19.71Zm3.75,7.71h1.18c1.19,0,2.02-.16,2.46-.47,.45-.31,.67-.83,.67-1.56,0-.43-.11-.8-.33-1.12-.22-.32-.52-.55-.9-.69-.37-.14-1.06-.21-2.06-.21h-1.03v4.05Z"/><path class="cls-1" d="M102.48,207.09l-2.78,2.45c-.98-1.36-1.97-2.04-2.98-2.04-.49,0-.89,.13-1.21,.39-.31,.26-.47,.56-.47,.89s.11,.64,.34,.94c.3,.39,1.22,1.24,2.75,2.53,1.43,1.2,2.3,1.95,2.6,2.26,.76,.77,1.3,1.5,1.62,2.21,.32,.7,.48,1.47,.48,2.3,0,1.62-.56,2.95-1.68,4.01-1.12,1.05-2.58,1.58-4.37,1.58-1.4,0-2.63-.34-3.67-1.03-1.04-.69-1.93-1.77-2.68-3.24l3.15-1.9c.95,1.74,2.04,2.61,3.27,2.61,.64,0,1.19-.19,1.62-.56,.44-.38,.66-.81,.66-1.3,0-.45-.17-.89-.5-1.34-.33-.45-1.06-1.13-2.19-2.05-2.15-1.75-3.54-3.1-4.16-4.05-.63-.95-.94-1.9-.94-2.85,0-1.37,.52-2.54,1.56-3.52,1.04-.98,2.33-1.47,3.86-1.47,.98,0,1.92,.23,2.81,.68,.89,.46,1.85,1.29,2.89,2.49Z"/><path class="cls-1" d="M105.64,204.41h3.73v19.71h-3.73v-19.71Z"/><path class="cls-1" d="M113.11,204.41h4.45c2.87,0,4.99,.36,6.39,1.07,1.39,.71,2.54,1.87,3.44,3.46,.9,1.6,1.35,3.47,1.35,5.6,0,1.52-.25,2.91-.76,4.19-.5,1.27-1.2,2.33-2.09,3.17-.89,.84-1.85,1.42-2.89,1.74-1.04,.32-2.83,.48-5.38,.48h-4.51v-19.71Zm3.73,3.62v12.44h1.74c1.72,0,2.96-.2,3.73-.59,.77-.39,1.4-1.06,1.9-1.99,.49-.93,.74-2.07,.74-3.43,0-2.09-.58-3.72-1.76-4.87-1.05-1.04-2.75-1.55-5.08-1.55h-1.27Z"/><path class="cls-1" d="M137.83,204.41h3.81l7.58,19.71h-3.9l-1.54-4.06h-8.04l-1.6,4.06h-3.9l7.6-19.71Zm1.93,5.23l-2.64,6.77h5.27l-2.63-6.77Z"/><path class="cls-1" d="M151.64,204.41h4.45c2.86,0,4.99,.36,6.39,1.07,1.39,.71,2.54,1.87,3.44,3.46,.9,1.6,1.35,3.47,1.35,5.6,0,1.52-.25,2.91-.76,4.19-.5,1.27-1.2,2.33-2.09,3.17-.89,.84-1.85,1.42-2.89,1.74-1.04,.32-2.83,.48-5.38,.48h-4.51v-19.71Zm3.73,3.62v12.44h1.74c1.72,0,2.96-.2,3.73-.59,.77-.39,1.4-1.06,1.9-1.99,.49-.93,.74-2.07,.74-3.43,0-2.09-.58-3.72-1.76-4.87-1.05-1.04-2.75-1.55-5.08-1.55h-1.27Z"/><path class="cls-1" d="M177.55,204.41h4.45c2.87,0,4.99,.36,6.39,1.07,1.39,.71,2.54,1.87,3.44,3.46,.9,1.6,1.35,3.47,1.35,5.6,0,1.52-.25,2.91-.76,4.19-.5,1.27-1.2,2.33-2.09,3.17-.89,.84-1.85,1.42-2.89,1.74-1.04,.32-2.83,.48-5.38,.48h-4.51v-19.71Zm3.73,3.62v12.44h1.74c1.72,0,2.96-.2,3.73-.59,.77-.39,1.41-1.06,1.9-1.99,.49-.93,.74-2.07,.74-3.43,0-2.09-.59-3.72-1.76-4.87-1.05-1.04-2.75-1.55-5.08-1.55h-1.27Z"/><path class="cls-1" d="M196.27,204.41h10.76v3.67h-7.04v3.56h7.04v3.61h-7.04v5.19h7.04v3.69h-10.76v-19.71Z"/><path class="cls-1" d="M215.28,204.41h10.9v3.7h-3.59v16.01h-3.81v-16.01h-3.5v-3.7Z"/><path class="cls-1" d="M234.27,204.41h3.81l7.58,19.71h-3.9l-1.54-4.06h-8.04l-1.6,4.06h-3.9l7.6-19.71Zm1.93,5.23l-2.64,6.77h5.27l-2.63-6.77Z"/><path class="cls-1" d="M248.32,204.41h3.97c2.18,0,3.73,.2,4.65,.58,.92,.39,1.67,1.04,2.23,1.94,.56,.9,.84,1.97,.84,3.2,0,1.29-.31,2.38-.93,3.25-.62,.87-1.56,1.53-2.81,1.98l4.67,8.76h-4.1l-4.43-8.35h-.34v8.35h-3.75v-19.71Zm3.75,7.71h1.18c1.19,0,2.01-.16,2.46-.47,.45-.31,.67-.83,.67-1.56,0-.43-.11-.8-.33-1.12-.22-.32-.52-.55-.9-.69s-1.06-.21-2.06-.21h-1.03v4.05Z"/><path class="cls-1" d="M269.5,204.41h3.8l7.58,19.71h-3.9l-1.54-4.06h-8.04l-1.6,4.06h-3.9l7.6-19.71Zm1.93,5.23l-2.64,6.77h5.27l-2.63-6.77Z"/><path class="cls-1" d="M283.28,204.41h3.98c2.15,0,3.7,.2,4.66,.6,.95,.4,1.7,1.04,2.25,1.93,.55,.89,.82,1.96,.82,3.2,0,1.38-.36,2.52-1.08,3.43-.72,.91-1.7,1.55-2.93,1.9-.72,.21-2.04,.31-3.95,.31v8.35h-3.75v-19.71Zm3.75,7.71h1.19c.94,0,1.59-.07,1.96-.2,.37-.13,.66-.36,.87-.66,.21-.31,.31-.69,.31-1.12,0-.76-.29-1.32-.88-1.67-.43-.26-1.22-.39-2.39-.39h-1.06v4.05Z"/><path class="cls-1" d="M304.19,204.41h3.8l7.58,19.71h-3.9l-1.54-4.06h-8.04l-1.6,4.06h-3.9l7.6-19.71Zm1.93,5.23l-2.64,6.77h5.27l-2.63-6.77Z"/><path class="cls-1" d="M336.1,207.87l-2.62,2.5c-1.79-1.88-3.79-2.83-6.03-2.83-1.88,0-3.47,.64-4.76,1.93-1.29,1.29-1.93,2.88-1.93,4.76,0,1.31,.29,2.48,.86,3.5,.57,1.02,1.38,1.82,2.42,2.4,1.04,.58,2.2,.87,3.48,.87,1.09,0,2.08-.21,2.99-.61,.9-.41,1.89-1.15,2.97-2.22l2.54,2.65c-1.46,1.42-2.83,2.41-4.13,2.96-1.3,.55-2.77,.82-4.44,.82-3.06,0-5.57-.97-7.53-2.91-1.95-1.94-2.93-4.44-2.93-7.47,0-1.96,.44-3.71,1.33-5.24,.89-1.53,2.16-2.76,3.82-3.69,1.66-.93,3.44-1.39,5.35-1.39,1.63,0,3.19,.34,4.7,1.03,1.5,.69,2.8,1.66,3.89,2.93Z"/><path class="cls-1" d="M344.91,204.41h3.8l7.58,19.71h-3.9l-1.54-4.06h-8.04l-1.6,4.06h-3.9l7.6-19.71Zm1.93,5.23l-2.64,6.77h5.27l-2.63-6.77Zm.64-12.01h4.33l-4.91,5.25h-2.63l3.2-5.25Z"/></g><g><path class="cls-1" d="M30.6,246.6l3.21-11.96h4.14l-3.18,11.86c-.1,.37-.18,.74-.24,1.11-.06,.38-.11,.81-.14,1.29-.03,.48,.06,.92,.28,1.32,.21,.39,.59,.7,1.12,.91,.53,.21,1.23,.32,2.11,.32,1.17,0,2.12-.18,2.85-.55,.73-.37,1.31-.89,1.74-1.58,.43-.69,.81-1.62,1.12-2.81l3.18-11.86h4.12l-3.21,11.96c-.14,.51-.29,1.03-.47,1.54-.17,.51-.35,1.02-.54,1.51-.37,.82-1.17,1.85-2.41,3.09-1.24,1.24-3.66,1.85-7.26,1.85s-5.75-.57-6.3-1.71c-.55-1.14-.82-1.93-.83-2.36,0-.43,0-.77,.01-1.03,.01-.26,.06-.55,.15-.88,.07-.25,.13-.5,.19-.73,.06-.23,.12-.45,.18-.67l.16-.61Z"/><path class="cls-1" d="M52.26,254.37h-3.79l3.88-14.46h7.16c1.34,0,2.4,.15,3.2,.47,.79,.31,1.33,.86,1.59,1.63,.27,.78,.22,1.84-.14,3.2l-2.46,9.17h-3.87l2.32-8.67c.08-.29,.14-.57,.18-.84,.04-.27,.06-.55,.05-.85-.01-.3-.17-.53-.48-.67-.31-.15-.83-.22-1.56-.22h-3.07l-3.02,11.25Z"/><path class="cls-1" d="M69.4,234.64h3.95l-.96,3.6h-3.95l.96-3.6Zm-1.41,5.27h3.95l-3.88,14.46h-3.95l3.88-14.46Z"/><path class="cls-1" d="M79.15,254.37h-4.06l-2.24-14.46h4.23l1.28,10.29,6.98-10.29h4.12l-10.3,14.46Z"/><path class="cls-1" d="M99.28,251.38l-.8,2.99h-5.57c-2.47,0-4.13-.66-4.97-1.98-.85-1.32-.97-3.07-.39-5.27,.59-2.2,1.49-3.81,2.7-4.84,1.21-1.03,2.32-1.69,3.34-1.96,1.02-.28,2.08-.41,3.2-.41h5.57l-.8,2.99h-5.05c-.82,0-1.49,.06-2,.19-.51,.13-.96,.39-1.34,.79-.44,.42-.76,1.01-.96,1.76h8.62l-.82,3.04h-8.62c-.2,.75-.22,1.32-.06,1.72,.16,.39,.47,.66,.92,.81,.45,.11,1.1,.16,1.96,.16h5.08Z"/><path class="cls-1" d="M103.91,254.37h-3.79l3.88-14.46h6.42c1.17,0,2,.16,2.5,.49,.5,.33,.75,.78,.76,1.34,.01,.57-.12,1.36-.39,2.36l-.26,.96-.23,.88h-3.62l.31-1.15c.2-.75,.29-1.25,.26-1.49-.03-.25-.15-.42-.38-.51-.23-.04-.43-.06-.61-.08-.18-.02-.48-.03-.9-.03h-.82l-3.13,11.69Z"/><path class="cls-1" d="M121.8,254.37h-9.8l.8-2.99h8.04c1.35,0,2.16-.48,2.42-1.45,.25-.93-.3-1.4-1.66-1.4h-3.32c-.48,0-.85,0-1.12-.03-.27-.02-.65-.07-1.14-.15-.49-.08-.91-.27-1.25-.55-.34-.28-.55-.71-.62-1.26-.07-.56,0-1.23,.21-2.02,.82-3.07,2.94-4.61,6.34-4.61h8.18l-.8,2.99h-7.43c-1.16,0-1.89,.32-2.19,.96l-.12,.46c-.22,.81,.28,1.21,1.49,1.21h3.49c.69,0,1.31,.08,1.85,.23,.53,.16,.98,.4,1.32,.74,.35,.34,.58,.77,.68,1.29,.11,.52,.07,1.12-.11,1.8-.22,.82-.53,1.52-.92,2.08-.39,.57-.73,.99-1.03,1.28-.3,.28-.72,.59-1.26,.92-.55,.33-1.23,.5-2.05,.5Z"/><path class="cls-1" d="M132.99,234.64h3.95l-.96,3.6h-3.95l.96-3.6Zm-1.41,5.27h3.95l-3.88,14.46h-3.95l3.88-14.46Z"/><path class="cls-1" d="M148.99,234.64h3.87l-5.29,19.73h-7.35c-1.39,0-2.37-.18-2.95-.52-.58-.35-.94-.59-1.09-.73-.16-.14-.35-.37-.6-.69-.24-.32-.45-.75-.61-1.28-.16-.53-.24-1.11-.25-1.73,0-.62,.08-1.26,.25-1.92l.08-.3c.55-2.05,1.41-3.62,2.57-4.72,1.16-1.1,2.25-1.8,3.26-2.11,1.01-.31,2.15-.47,3.43-.47h3.27l1.41-5.27Zm-5.67,16.66h1.21l2.21-8.23-.87-.03h-1.07l-1.92,.08c-.44,0-1.03,.25-1.76,.74-.58,.46-1.03,.99-1.34,1.61-.31,.61-.57,1.31-.78,2.1-.21,.77-.28,1.4-.22,1.91,.06,.5,.32,.93,.78,1.29,.46,.36,1.39,.53,2.78,.53h.99Z"/><path class="cls-1" d="M159.79,242.9h-6.39l.8-2.99h7.82c.93,0,1.76,.09,2.49,.27,.73,.18,1.36,.66,1.89,1.44,.53,.78,.57,2.01,.12,3.69l-2.43,9.06h-10.24c-1.43,0-2.42-.38-2.98-1.15-.61-.73-.73-1.77-.37-3.13l.1-.38c.31-.82,.69-1.51,1.12-2.04,.44-.54,.96-.96,1.57-1.26,.61-.3,1.24-.51,1.88-.63,.64-.12,1.41-.18,2.31-.18h5.05c.21-.77,.22-1.35,.04-1.74-.18-.39-.49-.65-.95-.77-.45-.12-1.07-.18-1.86-.18Zm-3.59,8.59h4.78l.81-3.02h-4.5c-.64,0-1.21,.1-1.71,.29-.5,.19-.83,.6-1,1.22-.11,.42-.1,.75,.03,.97,.13,.23,.32,.38,.57,.44,.25,.06,.59,.1,1.03,.1Z"/><path class="cls-1" d="M181.49,234.64h3.87l-5.29,19.73h-7.35c-1.39,0-2.37-.18-2.95-.52-.58-.35-.94-.59-1.09-.73-.15-.14-.35-.37-.6-.69-.24-.32-.45-.75-.61-1.28-.16-.53-.24-1.11-.25-1.73,0-.62,.08-1.26,.25-1.92l.08-.3c.55-2.05,1.4-3.62,2.57-4.72,1.16-1.1,2.25-1.8,3.26-2.11,1.01-.31,2.15-.47,3.43-.47h3.27l1.41-5.27Zm-5.67,16.66h1.21l2.21-8.23-.87-.03h-1.07l-1.92,.08c-.44,0-1.03,.25-1.76,.74-.58,.46-1.03,.99-1.34,1.61-.31,.61-.57,1.31-.78,2.1-.21,.77-.28,1.4-.22,1.91,.06,.5,.32,.93,.78,1.29,.46,.36,1.39,.53,2.78,.53h.99Z"/><path class="cls-1" d="M204.68,234.64h3.87l-5.29,19.73h-7.36c-1.39,0-2.37-.18-2.95-.52-.58-.35-.94-.59-1.09-.73-.16-.14-.35-.37-.6-.69-.24-.32-.45-.75-.61-1.28-.16-.53-.24-1.11-.25-1.73,0-.62,.08-1.26,.25-1.92l.08-.3c.55-2.05,1.41-3.62,2.57-4.72,1.16-1.1,2.25-1.8,3.26-2.11,1.01-.31,2.15-.47,3.43-.47h3.27l1.41-5.27Zm-5.67,16.66h1.21l2.21-8.23-.87-.03h-1.07l-1.92,.08c-.44,0-1.03,.25-1.76,.74-.58,.46-1.03,.99-1.34,1.61-.31,.61-.57,1.31-.78,2.1-.2,.77-.28,1.4-.22,1.91,.06,.5,.32,.93,.78,1.29,.46,.36,1.39,.53,2.78,.53h.99Z"/><path class="cls-1" d="M218.55,251.38l-.8,2.99h-5.57c-2.47,0-4.13-.66-4.97-1.98-.84-1.32-.97-3.07-.38-5.27,.59-2.2,1.49-3.81,2.7-4.84,1.21-1.03,2.32-1.69,3.34-1.96,1.02-.28,2.08-.41,3.2-.41h5.57l-.8,2.99h-5.05c-.82,0-1.49,.06-2,.19-.51,.13-.96,.39-1.34,.79-.44,.42-.76,1.01-.96,1.76h8.62l-.82,3.04h-8.62c-.2,.75-.22,1.32-.06,1.72,.16,.39,.47,.66,.92,.81,.45,.11,1.1,.16,1.96,.16h5.08Z"/><path class="cls-1" d="M224.63,234.64h3.95l-5.29,19.73h-3.95l5.29-19.73Z"/><path class="cls-1" d="M253.61,234.64l-.92,3.43h-6.81c-1.48,0-2.73,.39-3.76,1.17-1.02,.78-1.74,1.93-2.14,3.44h11.47l-.92,3.43h-11.47c-.44,1.65-.45,2.8-.02,3.47,.42,.67,.88,1.06,1.37,1.18,.49,.12,1.16,.18,2.02,.18h6.81l-.92,3.43h-6.97c-1.32,0-2.41-.12-3.27-.34-.86-.23-1.67-.69-2.41-1.39-.86-.95-1.35-2.09-1.46-3.43-.11-1.33,.05-2.78,.46-4.34l.37-1.18c.19-.71,.45-1.41,.78-2.09,.33-.68,.68-1.32,1.06-1.92,.38-.6,.78-1.13,1.19-1.59,.41-.46,.98-.97,1.7-1.54,.72-.57,1.52-.98,2.39-1.25,.87-.27,1.68-.44,2.41-.54,.73-.09,1.45-.14,2.16-.14h6.86Z"/><path class="cls-1" d="M260.37,254.37h-9.8l.8-2.99h8.04c1.35,0,2.16-.48,2.42-1.45,.25-.93-.3-1.4-1.66-1.4h-3.32c-.48,0-.85,0-1.12-.03-.27-.02-.65-.07-1.14-.15-.49-.08-.91-.27-1.25-.55-.34-.28-.55-.71-.62-1.26-.07-.56,0-1.23,.21-2.02,.82-3.07,2.94-4.61,6.34-4.61h8.18l-.8,2.99h-7.43c-1.16,0-1.89,.32-2.19,.96l-.12,.46c-.21,.81,.28,1.21,1.49,1.21h3.49c.69,0,1.31,.08,1.84,.23,.54,.16,.98,.4,1.33,.74,.35,.34,.58,.77,.68,1.29,.11,.52,.07,1.12-.11,1.8-.22,.82-.53,1.52-.92,2.08-.39,.57-.73,.99-1.03,1.28-.29,.28-.71,.59-1.26,.92-.55,.33-1.23,.5-2.05,.5Z"/><path class="cls-1" d="M270.59,242.79h-2.66l.77-2.88h2.66l1.41-5.27h3.81l-1.41,5.27h4.09l-.77,2.88h-4.09l-1.57,5.85c-.23,.86-.26,1.5-.09,1.92,.17,.42,.49,.69,.95,.8,.56,.09,1.25,.14,2.08,.14h.38l-.77,2.88h-3.48c-1.45,0-2.44-.4-2.97-1.21-.53-.8-.61-1.9-.24-3.29l1.9-7.08Z"/><path class="cls-1" d="M286.53,242.9h-6.39l.8-2.99h7.82c.93,0,1.76,.09,2.49,.27,.73,.18,1.36,.66,1.89,1.44,.53,.78,.57,2.01,.12,3.69l-2.43,9.06h-10.24c-1.43,0-2.42-.38-2.99-1.15-.61-.73-.73-1.77-.37-3.13l.1-.38c.31-.82,.69-1.51,1.12-2.04,.44-.54,.96-.96,1.58-1.26,.61-.3,1.24-.51,1.88-.63,.64-.12,1.42-.18,2.31-.18h5.05c.21-.77,.22-1.35,.04-1.74-.18-.39-.49-.65-.95-.77-.45-.12-1.07-.18-1.86-.18Zm-3.59,8.59h4.78l.81-3.02h-4.5c-.64,0-1.21,.1-1.71,.29-.5,.19-.83,.6-1,1.22-.11,.42-.1,.75,.03,.97,.13,.23,.32,.38,.57,.44,.25,.06,.59,.1,1.03,.1Z"/><path class="cls-1" d="M308.23,234.64h3.87l-5.29,19.73h-7.36c-1.39,0-2.37-.18-2.95-.52-.58-.35-.94-.59-1.09-.73-.16-.14-.35-.37-.6-.69-.24-.32-.45-.75-.61-1.28-.16-.53-.24-1.11-.25-1.73,0-.62,.08-1.26,.25-1.92l.08-.3c.55-2.05,1.41-3.62,2.57-4.72,1.16-1.1,2.25-1.8,3.26-2.11,1.01-.31,2.15-.47,3.43-.47h3.27l1.41-5.27Zm-5.67,16.66h1.21l2.21-8.23-.87-.03h-1.07l-1.92,.08c-.44,0-1.03,.25-1.76,.74-.58,.46-1.03,.99-1.34,1.61-.31,.61-.57,1.31-.78,2.1-.21,.77-.28,1.4-.22,1.91,.06,.5,.32,.93,.78,1.29,.46,.36,1.39,.53,2.78,.53h.99Z"/><path class="cls-1" d="M321.98,252.64c-.87,.64-1.7,1.09-2.5,1.36-.8,.26-1.46,.44-1.98,.54-.52,.09-1.04,.14-1.57,.14-1.01,0-1.97-.18-2.87-.54-.91-.36-1.62-.86-2.11-1.5-.5-.64-.79-1.34-.88-2.1-.09-.76-.12-1.38-.08-1.87,.04-.48,.13-1,.28-1.55,.28-1.04,.66-1.92,1.13-2.65,.48-.72,.89-1.28,1.24-1.66,.35-.39,.86-.84,1.52-1.36s1.52-.96,2.58-1.32c1.06-.36,2.13-.53,3.23-.53s2,.17,2.87,.51c.87,.34,1.5,.77,1.91,1.29,.4,.52,.67,.98,.83,1.37,.15,.39,.27,.94,.35,1.65,.09,.7-.02,1.61-.31,2.7-.28,1.04-.73,2.04-1.34,3.01-.61,.96-1.37,1.8-2.28,2.51Zm-6.45-1.32c.13,.07,.3,.13,.52,.16,.22,.04,.44,.05,.66,.05,.79,0,1.56-.23,2.33-.69,.76-.46,1.34-1.01,1.72-1.67,.39-.66,.67-1.33,.85-2,.26-.97,.31-1.82,.15-2.54-.16-.72-.59-1.25-1.29-1.58-.46-.18-.91-.28-1.33-.28-.48,0-1,.1-1.56,.3-.56,.24-1.05,.54-1.48,.9-.43,.37-.8,.82-1.12,1.35-.32,.53-.57,1.14-.75,1.84-.25,.93-.28,1.78-.09,2.53,.19,.75,.66,1.29,1.39,1.62Z"/></g></g></svg>